/* XPM */
static char *a99ea5b6d94244c7df07998b5512dde1njMHaWMnk7AfpczC[] = {
/* columns rows colors chars-per-pixel */
"32 32 88 1 ",
"  c #070C0C",
". c #090E0F",
"X c #1A1801",
"o c #1C1901",
"O c #1F1E06",
"+ c #1A1C09",
"@ c #1E1F0A",
"# c #0A1011",
"$ c #0D1516",
"% c #0E1718",
"& c #0F1819",
"* c #101A1B",
"= c #121D1E",
"- c #292807",
"; c #2F2E0E",
": c #352E00",
"> c #363103",
", c #353004",
"< c #3F3C0B",
"1 c #2B2C10",
"2 c #282F1A",
"3 c #2B3218",
"4 c #323413",
"5 c #3F3E10",
"6 c #131F20",
"7 c #132021",
"8 c #152123",
"9 c #152324",
"0 c #162527",
"q c #1F2B22",
"w c #1B2926",
"e c #182728",
"r c #19292A",
"t c #1B2B2D",
"y c #1B2C2E",
"u c #1C2C2E",
"i c #1D2E30",
"p c #202D28",
"a c #202F2D",
"s c #203131",
"d c #203436",
"f c #223739",
"g c #23383A",
"h c #243A3C",
"j c #453C00",
"k c #474206",
"l c #4E4300",
"z c #4C4403",
"x c #4F490B",
"c c #504500",
"v c #444412",
"b c #545010",
"n c #655700",
"m c #675800",
"M c #6B5C00",
"N c #7A6A01",
"B c #7E6D00",
"V c #847100",
"C c #887400",
"Z c #8E7E07",
"A c #917F07",
"S c #968000",
"D c #9B8500",
"F c #A28A00",
"G c #AF9500",
"H c #B19700",
"J c #B79D01",
"K c #B99E00",
"L c #C8AA00",
"P c #D5B500",
"I c #DDBB00",
"U c #DEBC00",
"Y c #E2BD00",
"T c #E6C000",
"R c #E9C300",
"E c #EBC400",
"W c #ECC600",
"Q c #EEC900",
"! c #F1CA00",
"~ c #F2CD00",
"^ c #F5CD00",
"/ c #F6D000",
"( c #FAD300",
") c #FBD400",
"_ c #FDD500",
"` c #FFD800",
"' c #FEDC00",
"] c #FFE100",
/* pixels */
"000000000000000000000000000000&&",
"0hhhhhhh0iiiiiii0hhhhhhhihhhhhhh",
"0hhhhhhh0hhhhhhh0hhhhhhhihhhhhhh",
"0hhhhhhhihhhhhhhihhhhhhhihhhhhhh",
"0hhhhhhhihhhhhhhihhhhhhhihhhhhhh",
"0hhhhhhhihhhhhhhihhhhhhhihhhhhhh",
"0hhhhhhhihhhhhhhihhhhhhhihhhhhhh",
"0hhhhhhhihhhhhhhihhhhhhhihhhhhhh",
"0iiiiiiiiiiii8%%%%0iiiiiiiiiiiii",
"0hhhhhhhihftr4jjjj3tyghhihhhhhhh",
"0hhhhhhhigaOoS(//(NX@sghihhhhhhh",
"0hhhhhhhir-LIQ____EUJ+uhihhhhhhh",
"0hhhhhhh=<K/`!TTTT^`~G;rihhhhhhh",
"0hhhhhhh$l__!WWWWWW~_~:8ihhhhhhh",
"0hhhhhgi1B(^R!____QQ`^M2ehhhhhhh",
"0hhhhhg#V_(Y^______`]_(n#hhhhhhh",
"00iiiiu V`(Y^______`]__m#iiiiii0",
"0hhhhhf.C`(Y^______`]_`m#hhhhhhh",
"0hhhhhg9xG(WW^____`'`/F56hhhhhhh",
"0hhhhhhh&z)_E~````''_~:8ihhhhhhh",
"0hhhhhhh*lT(_`]]]]`_(I,0ihhhhhhh",
"0hhhhhhhtqjT)_____)_P>pfihhhhhhh",
"0hhhhhhhidqzcH`__`Dzkwfhihhhhhhh",
"0hhhhhhhihf=*bAZZAv*7ghhihhhhhhh",
"0iiiiiiiiiiiitrrrrtiiiiiiiiiiiii",
"0hhhhhhhihhhhhhhihhhhhhhihhhhhhh",
"0hhhhhhhihhhhhhhihhhhhhhihhhhhhh",
"0hhhhhhhihhhhhhhihhhhhhhihhhhhhh",
"0hhhhhhhihhhhhhhihhhhhhhihhhhhhh",
"0hhhhhhhihhhhhhhihhhhhhhihhhhhhh",
"0hhhhhhhihhhhhhhihhhhhhhihhhhhhh",
"0hhhhhhhihhhhhhhihhhhhhhihhhhhhh"
};
