/* XPM */
static char *d7b52b49da41466ef7bd000199544335QJnMcSZE5dmonuPn[] = {
/* columns rows colors chars-per-pixel */
"32 32 12 1 ",
"  c #311411",
". c #534F54",
"X c #433F40",
"o c #343131",
"O c #6D6970",
"+ c #6F3900",
"@ c #98552A",
"# c #562C00",
"$ c #422926",
"% c #AFAFAF",
"& c #86838C",
"* c black",
/* pixels */
" .XXXXXXXXXXXXXXXXXXXXXXXoOXXXX ",
" Xoooooooooooooooooooooooo.XXXX ",
" +XXXXXXXXXXXXXXXXXXXXXXooo.XoX ",
" @###$####$####$####$####$#.XXX ",
" @++#$+++#$+++#$+++#$+++#$+#.XX ",
" @++#$++++$++++$++++$++++$++### ",
" @+++$++++$+++#$++++$+++#$+++## ",
" @++#$++++$++++$+++#$++++$+++## ",
" @+++$++++$++++$++++$++++$+++## ",
" @+++$++++$++++$++++$++++$+++## ",
" @++XXoo#+$++++$++++$++++$+++## ",
" @+XOOO.o#$++++$++++$++++$+++## ",
" @XO.....o$++++$++++$++++$+++## ",
" @o..XX..o$++++$++++$++++$+++## ",
" @o.X%&o.o$++++$++++$++++$+++## ",
" @o.X&.o.o$++++$++++$++++$+++## ",
" @oXXO.oXo$++++$++++$++++$+++## ",
" @oXXO.oXo$++++$++++$++++$+++## ",
" @#oXO.oo#$++++$++++$++++$+++## ",
" @+#XO.o##$++++$++++$++++$+++## ",
" @++XO.o#+$++++$++++$++++$+++## ",
" @++XO.o#+$++++$++++$++++$+++## ",
" @++#Xo##+$++++$++++$++++$+++## ",
" @+++$##++$++++$++++$++++$+++## ",
" @+++$++++$+++#$++++$++++$+++## ",
" @+++$++++$++++$+++#$++++$+++## ",
" @+++$+++#$++++$++++$+++#$+++## ",
" @++#$++++$++++$+++#$++++$++OOX ",
" @++#$+++#$+++#$+++#$+++#$+OXXX ",
" +OO..OO..O...............X.XoX ",
" .XXXXXXXXXXXXXXXXXXXXXXXoOXXXX ",
" Xoooooooooooooooooooooooo.XXXX "
};
