/* XPM */
static char *af88779742ef4ec3c771949ced6b0d17v79hp8LG6V0ck06x[] = {
/* columns rows colors chars-per-pixel */
"32 32 182 2 ",
"   c #030302",
".  c #0D0303",
"X  c #040904",
"o  c #0C0A05",
"O  c #06060A",
"+  c #0B0708",
"@  c #030C0C",
"#  c #0A0C0B",
"$  c #120600",
"%  c #180400",
"&  c #120A05",
"*  c #130B0A",
"=  c #0E1106",
"-  c #07110D",
";  c #0C100F",
":  c #111109",
">  c #050F11",
",  c #0D0F13",
"<  c #0D1212",
"1  c #0B1A1F",
"2  c #161712",
"3  c #171C18",
"4  c #141C11",
"5  c #2A1D08",
"6  c #17201D",
"7  c #1A231A",
"8  c #23241F",
"9  c #2C251D",
"0  c #3C231C",
"q  c #0D1F23",
"w  c #111E22",
"e  c #0F2224",
"r  c #0E272E",
"t  c #142325",
"y  c #112C27",
"u  c #182827",
"i  c #13252A",
"p  c #1A262A",
"a  c #16292C",
"s  c #1A2B2D",
"d  c #1B2524",
"f  c #1B312E",
"g  c #132C31",
"h  c #1B2E32",
"j  c #133333",
"k  c #1D3235",
"l  c #1C3936",
"z  c #1E3639",
"x  c #1E3B3C",
"c  c #212227",
"v  c #2B2322",
"b  c #222826",
"n  c #2F2C24",
"m  c #222C2C",
"M  c #3F2725",
"N  c #3C2B23",
"B  c #312A29",
"V  c #312A24",
"C  c #25312F",
"Z  c #313125",
"A  c #3E322D",
"S  c #222D33",
"D  c #282F37",
"F  c #233335",
"G  c #2B3433",
"H  c #263834",
"J  c #293935",
"K  c #23363B",
"L  c #2A353B",
"P  c #253A3D",
"I  c #2A3C3E",
"U  c #323D3D",
"Y  c #3C373D",
"T  c #462326",
"R  c #46332C",
"E  c #4D322E",
"W  c #503228",
"Q  c #443633",
"!  c #453B37",
"~  c #4D3B34",
"^  c #463737",
"/  c #503732",
"(  c #513C35",
")  c #5B3A36",
"_  c #513D3A",
"`  c #5B3C3A",
"'  c #603B35",
"]  c #26403C",
"[  c #2A413F",
"{  c #3E443C",
"}  c #3D4633",
"|  c #4D4336",
" . c #4E443C",
".. c #524036",
"X. c #52443C",
"o. c #5B413D",
"O. c #52483C",
"+. c #5F4E3C",
"@. c #63443E",
"#. c #664B38",
"$. c #1E3A42",
"%. c #253C41",
"&. c #2A3D42",
"*. c #313944",
"=. c #1D4041",
"-. c #264143",
";. c #2B4144",
":. c #2A4649",
">. c #3C4B4C",
",. c #324548",
"<. c #3B4D55",
"1. c #3C595F",
"2. c #4E4741",
"3. c #4F4E49",
"4. c #524342",
"5. c #5F4641",
"6. c #5D4C45",
"7. c #514A44",
"8. c #5A5047",
"9. c #5C5149",
"0. c #464D52",
"q. c #4B4E53",
"w. c #514F52",
"e. c #4D5354",
"r. c #4D555C",
"t. c #435356",
"y. c #624742",
"u. c #634A45",
"i. c #6B4A46",
"p. c #634D4B",
"a. c #6A4B4B",
"s. c #704F4A",
"d. c #6E5247",
"f. c #6A514B",
"g. c #75695D",
"h. c #68705B",
"j. c #405C60",
"k. c #4D5D64",
"l. c #565F70",
"z. c #615E6F",
"x. c #4E6168",
"c. c #4C6869",
"v. c #566569",
"b. c #586C76",
"n. c #6D7A68",
"m. c #77776F",
"M. c #7A736D",
"N. c #AB696D",
"B. c #879281",
"V. c #BDA69E",
"C. c #BFAE9E",
"Z. c #B6A299",
"A. c #BAABA3",
"S. c #C09F8C",
"D. c #CE9D95",
"F. c #C99E98",
"G. c #D49E92",
"H. c #E49F98",
"J. c #C7A79A",
"K. c #C9AD9F",
"L. c #CBA59A",
"P. c #D3A49C",
"I. c #DBA79A",
"U. c #D1A3A4",
"Y. c #DAA6A4",
"T. c #C5B4A0",
"R. c #DAB9AA",
"E. c #D9B9BA",
"W. c #E1B5A6",
"Q. c #E7B4A3",
"!. c #EAB0A4",
"~. c #E7B5AB",
"^. c #E0BCAC",
"/. c #F1B7B3",
"(. c #D2CEB3",
"). c #DEC6BC",
"_. c #D5C8BF",
"`. c #E1CAB8",
"'. c #E5CBB4",
"]. c #D1C9C6",
"[. c #D8CECC",
"{. c #DACCC1",
/* pixels */
"w s i i a i i i a e a a r g w m a t t t a a e u i a i t i i q 1 ",
"s L K K P K P P e F m p G p ;   O {   U F K &.F k K P K P P K K ",
"i K P P I K P &.e G o * . o ! ~ ^ . ! X ;.K P &.h P &.P P P P P ",
"i K P P P z K P z - ! R R _ u.u.a.E 6.o F P P %.h P I P P K K P ",
"a P I P I P P P i U . ( f.p.5.y.i.i.u.8.< P &.K k P I P I I P I ",
"i K K K P P P P S # 4.u.y.u.u.i.` s.@.6.# F z -.h K P K P I P P ",
"i P P K P P P P b * / u.f.u.@.W ( f.o.u.  U P P k P I P I P P P ",
"i I &.P P P P P o Q / ` y.5.d.J.Q o.) u.4.  P P h K P P P P P P ",
"t k h s h h h h j & E p.6.#.L.U.D.+.P.9.. l g S a k h h h h h h ",
"s I P K P P P P c = ( a.@.G.I.$ ~.W.$ U.4.  I P k I P P P P P P ",
"i K P K P P P K < A O.u.N.H.S.5 Q.!.5 Y.  Y ] l h P K P P P P K ",
"i P P P I P P P m   _ ) ' F.P.R.Q.W.~.V.  I l I h P P P P P P P ",
"i P I P I P I P f U . _ X...F./.!.^.Y.  I =.%.F h P P P I P I P ",
"i P P K P K P P a L I X X. .% D.D.Y.  J P j *.-.h P K K K K P P ",
"i P I P I P P P m =.P o n M.M T.K.L.Z # ;.&.S x h P P P P K I I ",
"i P I P I P P P f P K o N m.{ (.(.C.T # K L ] ] h P P P P K I P ",
"w h s s k h h h S j # T N B.| ).'.{.V  .X h j s s S s h k h h i ",
"s P P P &.P P I S K X  .n.} | A.`._.A ~ & L &.J k I P P I P P K ",
"a P P P I K P P m . o. .h.N ` [.A.].Q 0 ~ O K J h P P P P K P P ",
"i K P P I K P P k * E.Z.g.M ^ >.e.q.v R A., P [ h P P P P K P P ",
"i P &.I I P P P j I X o : e.,.1.<.<.r.& o I $.l k I P P I P I P ",
"i K P P P K P P k K ] H X >.j.l.x.b.<.X G ;.$.-.h P K K P P I K ",
"i P I P I P P P S D H I , e.x.z.e.k.b.- C &.%.F h P P P I P I P ",
"i P P K P P P P j &.K K O 0.c.t.+ r.k.@ U z &.U h P P P P K P P ",
"t k h a h h h h m s F t > 0.v.t.@ q.w.O m s k h a k h h h h h h ",
"s P P K P P P P l z z U # B v v + n B # G I k %.k I P P P P P P ",
"i K P K P P P K g :.K F # 7.8.6.& 9 2.3.@ I &.%.h P K P P P P K ",
"i P P P I P P P S a i F 6 7 4 7 2 8 8 3 d u e %.h P P P P P P P ",
"i P I P I P I P D L F s s s f y p s s t S t I &.h P P P I P I P ",
"i P P K P K P P s z l P P K %.&.h %.x ;.F I ,.s h P K K K K P P ",
"i P I P I P P P z -.x &.P K P &.F K x &.%.h &.-.h P P P P K I I ",
"i P I P I P P P h P P K P K [ l p I P I F &.x x h P P P P K I P "
};
