/* XPM */
static char *new_char_down_11701887117[] = {
/* columns rows colors chars-per-pixel */
"32 32 192 2 ",
"   c #030403",
".  c #0C0501",
"X  c #030B04",
"o  c #0A0904",
"O  c #0D0709",
"+  c #040C0C",
"@  c #0C0B0B",
"#  c #130503",
"$  c #110B06",
"%  c #180A07",
"&  c #12060B",
"*  c #130B0C",
"=  c #051007",
"-  c #0B1302",
";  c #031208",
":  c #0C190F",
">  c #131203",
",  c #12110F",
"<  c #0F0D12",
"1  c #040B11",
"2  c #0D1718",
"3  c #0B1A1F",
"4  c #101511",
"5  c #161915",
"6  c #191E1A",
"7  c #251F05",
"8  c #321505",
"9  c #17221E",
"0  c #21221D",
"q  c #332D1F",
"w  c #0E1F23",
"e  c #111E24",
"r  c #0C2425",
"t  c #122325",
"y  c #1A2424",
"u  c #142529",
"i  c #1B2529",
"p  c #15292D",
"a  c #1B2B2D",
"s  c #1D312F",
"d  c #0C2D34",
"f  c #1B2E32",
"g  c #0F3830",
"h  c #143433",
"j  c #1E3134",
"k  c #1D3B34",
"l  c #1D353A",
"z  c #193939",
"x  c #252A25",
"c  c #2B2A25",
"v  c #222C2D",
"b  c #2B2A28",
"n  c #332C23",
"m  c #392F26",
"M  c #302E2A",
"N  c #3C2C2B",
"B  c #3A252C",
"V  c #24312E",
"C  c #2C3228",
"Z  c #343223",
"A  c #34302F",
"S  c #242B32",
"D  c #292C33",
"F  c #392733",
"G  c #332830",
"H  c #233434",
"J  c #2B3636",
"K  c #223E35",
"L  c #2B3A34",
"P  c #23373A",
"I  c #2A373B",
"U  c #253A3D",
"Y  c #2A3B3D",
"T  c #363032",
"R  c #323C3A",
"E  c #3A3838",
"W  c #512A2D",
"Q  c #4E342F",
"!  c #49372D",
"~  c #463232",
"^  c #4B3734",
"/  c #463837",
"(  c #4B3C33",
")  c #463A39",
"_  c #483C3C",
"`  c #5E3136",
"'  c #553A34",
"]  c #553739",
"[  c #5B3C3C",
"{  c #5A3833",
"}  c #6F3E3A",
"|  c #25443F",
" . c #28423F",
".. c #48402D",
"X. c #4B4234",
"o. c #4B453D",
"O. c #464E39",
"+. c #444435",
"@. c #5C423D",
"#. c #63433D",
"$. c #6C473F",
"%. c #61493D",
"&. c #1E3640",
"*. c #243D41",
"=. c #293D41",
"-. c #273D48",
";. c #333945",
":. c #184443",
">. c #274247",
",. c #2A4344",
"<. c #2E4648",
"1. c #254B40",
"2. c #304341",
"3. c #304548",
"4. c #344C4C",
"5. c #3B4D57",
"6. c #474A4F",
"7. c #4E4E4B",
"8. c #5C4C44",
"9. c #504C49",
"0. c #4E5746",
"q. c #4B544F",
"w. c #5F564F",
"e. c #444F51",
"r. c #4D4E54",
"t. c #4F5054",
"y. c #42525C",
"u. c #4B545B",
"i. c #455054",
"p. c #555650",
"a. c #515A5F",
"s. c #634743",
"d. c #6A4545",
"f. c #644B45",
"g. c #6C4B43",
"h. c #644D4B",
"j. c #6B4D4B",
"k. c #64474C",
"l. c #744847",
"z. c #605746",
"x. c #645049",
"c. c #6D524D",
"v. c #4E6259",
"b. c #4E5B63",
"n. c #585B6A",
"m. c #4F646B",
"M. c #55686F",
"N. c #5D686C",
"B. c #546471",
"V. c #717567",
"C. c #767863",
"Z. c #74766B",
"A. c #797768",
"S. c #7E7D69",
"D. c #636677",
"F. c #AD686B",
"G. c #BE626D",
"H. c #888F7D",
"J. c #8B957C",
"K. c #BDA799",
"L. c #C89F99",
"P. c #C69D96",
"I. c #D89E9D",
"U. c #DB9C95",
"Y. c #C5A49B",
"T. c #CDA49A",
"R. c #C2AA98",
"E. c #D9A095",
"W. c #D3A19C",
"Q. c #C49DA0",
"!. c #C0ADA7",
"~. c #CBA8A1",
"^. c #DCA6A2",
"/. c #DEAFA2",
"(. c #D2AAA0",
"). c #C9B2A3",
"_. c #DCB7A5",
"`. c #DEB4AB",
"'. c #DABBA6",
"]. c #E8AFA6",
"[. c #E0BCA6",
"{. c #ECB3AA",
"}. c #E0B9A8",
"|. c #E6B5A9",
" X c #E6B8BB",
".X c #D5CBB6",
"XX c #D6C1BE",
"oX c #DACEBE",
"OX c #D3D1BA",
"+X c #E2C6BB",
"@X c #DEC8C1",
"#X c #E4D5C2",
/* pixels */
"e p u u p u u u i y i i f w u y u p r p f r u u u a u r u u w w ",
"p I P P I P P *.r p j h f f j V u I =.H P P =.P H P U P U Y P P ",
"u P Y =.*.U I =.r <.l H L R   X y I X J Y K U =.f U =.U *.U U =.",
"u P U U U l P U f I J @ O . ^ ^ X . _ < H ,.l Y f P U U U P P P ",
"p Y *.U U U U U f J @ / ^ Q c.g.! ' j.~ o v P  .j U U U U *.U U ",
"u P P l U U U U h P R . 8.8.s.f.s.j.s.f.h., L U h U z U U U U U ",
"u U Y U U U U *.p ,.X z.f.h.@.x.j.[ c.%.[ ^ O H H P Y U U U U U ",
"u Y =.U U U U U f Y o @.f.s.Q Q s.( 8.x.j.W ^ ; f P *.U U U U U ",
"e S j p f f f f S < ~ ' $.$.Y.Q #.T.x.l.#.0.O a i j f f f f f f ",
"p =.*.U *.U Y U p 1.X Q %.Y.^.I.g.P.Y.8.#.g.$ L j =.P *.I P =.*.",
"p P P P Y U Y P S v : 8.} ).# ].E.}.> P.! c.k.+ f P P P =.P P P ",
"u P Y U *.U U U S & / d.F.T.7 }.'.].8 ^.G.( $ U f P *.I Y P *.U ",
"u I U U *.U U U a 1.$ ` } T.{.|.}.].|.W...8.  U j U Y Y *.U U U ",
"u P U P U P U U h h L o +.' ^._.[.].T.' [ X R *.f U U P P P U U ",
"u U =.U U K *.U a Y U  .o o.. (.U.P.- @.o k E P f U *.U U U U U ",
"u *.*.U >.l U U D U P & B Z.Z Y.R.).q V.N O P :.f U U U U l *.U ",
"e f p p f f f f x i v < c A.X.@X+XR._ S.B o j f i S f f f f f p ",
"f Y U U =.Y U Y h 1.X N N H.O.oXOX.X .J.A Z + R H *.P =.=.I *.P ",
"u I U U *.P U U d H o ( Z V.X.R..X#X' C.C ( O | f P P P U U I *.",
"u P U U U P U U l & } ( - N ] @X!.XX[ m o @.] ; f *.*.I U l U U ",
"u U *.U U z *.U z $ `.K.$ F M q.t.r.E T   L. X  j U U U U U U U ",
"u P U U U P U U p L > . + u.B.b.m.B.a.y.= * % L h U U P U U *.z ",
"u U *.U *.U U U D j | J + 4.B.D.i.n.N.5.= I K z f Y U U Y U *.U ",
"u U U P U U U U j -.&.I < r.N.5.+ u.v.y.. ;.k -.f I U U U P U U ",
"e H f f f f f f f H a v + r.r.+ a 1 7.9.o v f z p f f f f f f f ",
"i U U P *.U U Y p U ,.C o c G . H   b c @ L P U H =.P *.I P P *.",
"u P *.P =.P U P j *.H = p.9.q . v o M 9.7.X I P f P P P =.P =.P ",
"u P I *.*.Y *.P s t a y 5 0 x 4 2 i 6 x 4 9 s a f P *.I U U *.P ",
"u U | U U U *.U H I a s u v a j i a i v H a j H j U U Y =.U U U ",
"u U U l U P U U v H U k 3.U l &.f ,.P P U j *.*.f U U P P P U U ",
"u Y ,.P U U U U f U | U j U U >.j j ,.P U <.P Y f U *.U U U U U ",
"u U U U *.U U U j U >.j ,.P  .H a Y U =.K P P P f U U U U l *.U "
};
