/* XPM */
static char *new_char_down_21701887117[] = {
/* columns rows colors chars-per-pixel */
"32 32 198 2 ",
"   c #030403",
".  c #0B0503",
"X  c #040B04",
"o  c #0A0A05",
"O  c #010508",
"+  c #040B0B",
"@  c #0D0D0A",
"#  c #0B0509",
"$  c #120401",
"%  c #190404",
"&  c #150B07",
"*  c #120C0B",
"=  c #180A09",
"-  c #1B0508",
";  c #0C120B",
":  c #041004",
">  c #141100",
",  c #151108",
"<  c #19110E",
"1  c #080814",
"2  c #040B11",
"3  c #130B12",
"4  c #130D19",
"5  c #0C1314",
"6  c #0D1718",
"7  c #0B1A1F",
"8  c #101411",
"9  c #161915",
"0  c #191E1A",
"q  c #24070C",
"w  c #3A1C1E",
"e  c #17221E",
"r  c #32210D",
"t  c #21221D",
"y  c #32251D",
"u  c #32281F",
"i  c #2A2507",
"p  c #0D1F23",
"a  c #111E24",
"s  c #0E262A",
"d  c #122226",
"f  c #1B2525",
"g  c #132529",
"h  c #19262B",
"j  c #16292D",
"k  c #1A2B2D",
"l  c #152A23",
"z  c #14312E",
"x  c #1D302E",
"c  c #1D382F",
"v  c #0E2632",
"b  c #192730",
"n  c #172D32",
"m  c #1B2E32",
"M  c #1E3234",
"N  c #1D3C35",
"B  c #1D3438",
"V  c #1F3E3A",
"C  c #163339",
"Z  c #262823",
"A  c #2B2925",
"S  c #222C2D",
"D  c #2B2A28",
"F  c #27242D",
"G  c #312C23",
"H  c #30272C",
"J  c #312C29",
"K  c #3C2A2C",
"L  c #3A2426",
"P  c #2B3228",
"I  c #34302B",
"U  c #3D362E",
"Y  c #222F34",
"T  c #242E38",
"R  c #332830",
"E  c #243334",
"W  c #2A3434",
"Q  c #253937",
"!  c #2A3B37",
"~  c #24363A",
"^  c #29373D",
"/  c #253A3D",
"(  c #293B3D",
")  c #303535",
"_  c #303934",
"`  c #313A3A",
"'  c #3C3837",
"]  c #482F2A",
"[  c #422C27",
"{  c #44322B",
"}  c #4C342E",
"|  c #4C382F",
" . c #443532",
".. c #453935",
"X. c #4C3C35",
"o. c #533A35",
"O. c #583936",
"+. c #523D3A",
"@. c #5D3C39",
"#. c #583636",
"$. c #5A2A26",
"%. c #1D413B",
"&. c #3D422E",
"*. c #2B413D",
"=. c #31423C",
"-. c #4B4234",
";. c #454138",
":. c #4B463C",
">. c #524036",
",. c #5E4036",
"<. c #5D423C",
"1. c #56453B",
"2. c #63463D",
"3. c #65483F",
"4. c #68483D",
"5. c #1C3F41",
"6. c #223741",
"7. c #253C41",
"8. c #293D41",
"9. c #2C3642",
"0. c #313B47",
"q. c #264244",
"w. c #2A4144",
"e. c #2E4448",
"r. c #304441",
"t. c #304548",
"y. c #3D5253",
"u. c #305858",
"i. c #3C575B",
"p. c #444A4D",
"a. c #4D4D4C",
"s. c #4D4449",
"d. c #504740",
"f. c #5E4540",
"g. c #574A45",
"h. c #5D4B43",
"j. c #504C49",
"k. c #57524F",
"l. c #424D53",
"z. c #424F58",
"x. c #514B57",
"c. c #4C5253",
"v. c #4B595F",
"b. c #49545B",
"n. c #555650",
"m. c #644642",
"M. c #684740",
"N. c #634B44",
"B. c #694B45",
"V. c #634D48",
"C. c #694C49",
"Z. c #714B42",
"A. c #67524C",
"S. c #6D524B",
"D. c #535B67",
"F. c #595E6A",
"G. c #4F686F",
"H. c #47646A",
"J. c #59666E",
"K. c #586A6E",
"L. c #54666A",
"P. c #5B6773",
"I. c #60626F",
"U. c #697765",
"Y. c #727C6C",
"T. c #7B7D70",
"R. c #BE676F",
"E. c #A66968",
"W. c #73806F",
"Q. c #819480",
"!. c #889385",
"~. c #B6AC9D",
"^. c #BAA79D",
"/. c #BAB1A2",
"(. c #C19E98",
"). c #D49F95",
"_. c #DA9C9A",
"`. c #DD9596",
"'. c #C4A69D",
"]. c #CFA399",
"[. c #C9A798",
"{. c #D3A39B",
"}. c #DCAC9E",
"|. c #D89DA1",
" X c #C4ABA7",
".X c #DCACA3",
"XX c #D4A5A2",
"oX c #DEB4A1",
"OX c #DCB7B7",
"+X c #E4B6AA",
"@X c #EABAAB",
"#X c #E8B5A5",
"$X c #E4B9B0",
"%X c #DECCBD",
"&X c #D3C9B7",
"*X c #D3D2B6",
"=X c #D5CAC4",
"-X c #D6D0C0",
/* pixels */
"a h g g j g g g h g d n d g j h v h f l g s j l g j g s g g p 7 ",
"h ^ ~ ~ ( ~ ~ ( d E k S Y f @   g E ; E ^ 0.~ Q M ~ / ~ ( ( ~ ~ ",
"g ~ ( 7.( / ( 7.d ! ` @ & & X. .  , U @ ( ~ ~ 7.m ~ 8./ ~ 7.( ( ",
"g / ( / V B ~ ( B / O ' ..{ A.2.#.} m.{ @ E q.5.m ( / / / V ~ ~ ",
"j ( 7./ 7.V 6.( C 8.W < g.B.,.N.m.m.C.N.g.@ =.M M / 7./ 7.7./ 7.",
"g / ~ B / / / ~ M W # g.N.S.B.C.V.h.A.m.C.} . ` n B / V / / ~ / ",
"g ( ( ~ 7./ 7.( k ` . A.m.2.} } N.{ N.C.3.} ' @ M ( / / / / ( ~ ",
"g ( 7./ / ~ ( ( S @  .} 4.3.'.} Z.'.m.M.3.h.; Q n ~ 7./ / / ( ( ",
"a M m n n M m n M j X X.2.XX{._.3.XX|.h.h.h.o H j E n n m n m m ",
"j ^ 8.~ / / 7.( F N q N.4.].. +X{.$X$ ].$.C.n.O T 7.~ / ^ ( ( ( ",
"g ~ ( ~ ( / ( ~ M 3 ..N.E.].i oX#X}.r [.R.O.o w.k ~ ~ ~ / ~ ( / ",
"g ~ ( ~ 7./ / ~ h V # @.,.].#X#X#X@X.X.X-.@.5 M n ( ( ~ / / / / ",
"j ( 7./ / / 7.( B 8.V - X.-.`.#XoX#X_.&.<.X V 0.m 7.( 7.7.( ( ( ",
"g ~ / B / / / ~ b 9.E N & o.o XX].].& o.; ! ( 6.n ~ ~ ~ / B ~ V ",
"j 7.^ / / V 7.( T ~ / , I U.U ^.[.[.G Y.w X *./ m ^ / / / ~ 7.7.",
"s ~ 7.( *.V ~ 7.z / %.. I W.} *X*X~.-.W.J & ~ / n / / ( 7.V / / ",
"a m j n m n n n m k * J K !...%X*X%X-.Q.[ L # E h E m m m m m g ",
"m ~ ( ~ 8.~ ( ( z r.. ..y Y.:./.%X&X:.U.y :.o N M ( ~ ~ 8.7.8.~ ",
"g ~ / / 8.~ ~ / h # o.1.] G +.=X X=X+.G [ o.+.: n ~ 7.( ( / ~ 8.",
"g ~ / / / / / / W * OX^.%  .K a.s.c.H U % ^.OX$ m ( ~ ( / B / / ",
"j ~ 8.( 7./ / / s W & X @ p.c.i.v.u.b.y.# o = _ M ( 7./ 7.V / / ",
"g ~ 7.V / V / / C / W *.O y.P.H.F.G.D.v.5 M W B n / ~ / / / 7.V ",
"g ( 7.~ 7./ ( ( E ~ W W 4 z.F.J.x.J.J.x.  *.w.^ m ( ~ / ( / 7.~ ",
"g ^ ~ ~ / ~ / ~ m %.Q / 1 y.K.l.+ y.L.y.3 V C 8.n / / ~ / ~ / ( ",
"a M m n n n M n n E j S + x.p.2 m + a.j.o S n C j M m m m m m n ",
"h 8.( ~ ( / ( ( j / r.P o D I o E O D J o _ / / m 8.~ ( ( ~ ( ( ",
"g ~ 7.~ 7./ ( ~ B 8.Q : k.:.A o S o J :.a.+ ! Q m ~ ~ ~ ( / 7.~ ",
"g ~ ^ ( ( / / ~ k g x e 9 t A 9 6 f 0 Z 8 e x k m ~ ^ 7./ ~ ( / ",
"g ( 7./ 7./ 7./ E ^ k x d k h M h f k S E x M ~ m 7.( ( 7.( 7.( ",
"g ( / B / B ( / k E / M t.7.~ 6.m e.~ ~ / z 7.7.m ~ V ( ~ B / / ",
"g ( 7./ / / / / m ( *./ ~ ( V q.M B 8./ / e.B ( m ( / / / / / V ",
"g / 7.V *./ / / B V q.B ( / *.E k ( ~ w.~ ~ ( ~ n ( 7./ / B 7./ "
};
