/* XPM */
static char *new_char_left_21701884958[] = {
/* columns rows colors chars-per-pixel */
"32 32 182 2 ",
"   c #050502",
".  c #0D0501",
"X  c #020B04",
"o  c #0C0C02",
"O  c #020C0C",
"+  c #0B0B0B",
"@  c #0F040C",
"#  c #120602",
"$  c #1A0200",
"%  c #130904",
"&  c #180E07",
"*  c #150B09",
"=  c #14070E",
"-  c #0A1400",
";  c #07100B",
":  c #000E15",
">  c #061213",
",  c #0D1211",
"<  c #0D1C1E",
"1  c #161F1E",
"2  c #181D18",
"3  c #2D1B07",
"4  c #1E231D",
"5  c #3B200F",
"6  c #2A2017",
"7  c #2D241E",
"8  c #31271E",
"9  c #3B261F",
"0  c #0D1F23",
"q  c #111E24",
"w  c #1A1E21",
"e  c #0F232E",
"r  c #122226",
"t  c #1A2426",
"y  c #13252A",
"u  c #1B262B",
"i  c #162A2C",
"p  c #1B2B2D",
"a  c #1C312E",
"s  c #112A31",
"d  c #1B2E32",
"f  c #163730",
"g  c #1D3134",
"h  c #1E363A",
"j  c #173F3E",
"k  c #1E3839",
"l  c #212629",
"z  c #212B2D",
"x  c #372420",
"c  c #342A21",
"v  c #3C2A25",
"b  c #342C2A",
"n  c #22312E",
"m  c #2B382F",
"M  c #34312C",
"N  c #212E32",
"B  c #2A2E37",
"V  c #243334",
"C  c #2C3535",
"Z  c #253936",
"A  c #2C3836",
"S  c #23363A",
"D  c #28373C",
"F  c #253A3D",
"G  c #293C3E",
"H  c #303135",
"J  c #313C37",
"K  c #333738",
"L  c #323A3D",
"P  c #3B3535",
"I  c #402126",
"U  c #4B2E28",
"Y  c #422924",
"T  c #42362C",
"R  c #4C332E",
"E  c #46382F",
"W  c #51332D",
"Q  c #583B2D",
"!  c #492A30",
"~  c #443532",
"^  c #443934",
"/  c #4C3C34",
"(  c #493E38",
")  c #513531",
"_  c #5B3835",
"`  c #583539",
"'  c #533E3C",
"]  c #593A39",
"[  c #653D3B",
"{  c #28413E",
"}  c #4A4037",
"|  c #47433E",
" . c #4C433C",
".. c #4D493E",
"X. c #54423C",
"o. c #5B453C",
"O. c #62453F",
"+. c #1D3F41",
"@. c #233740",
"#. c #263C41",
"$. c #2A3D41",
"%. c #313F40",
"&. c #1F4341",
"*. c #274141",
"=. c #2C4143",
"-. c #334044",
";. c #314649",
":. c #3E4C59",
">. c #395256",
",. c #39545B",
"<. c #4C4443",
"1. c #4A4C4A",
"2. c #5E4741",
"3. c #5B4D44",
"4. c #534742",
"5. c #5A5145",
"6. c #5E544B",
"7. c #434C55",
"8. c #4B4C50",
"9. c #444B5D",
"0. c #475153",
"q. c #405A51",
"w. c #45535A",
"e. c #4C5158",
"r. c #50535A",
"t. c #694343",
"y. c #644A45",
"u. c #6A4C43",
"i. c #624A48",
"p. c #6B4C49",
"a. c #654341",
"s. c #704D4B",
"d. c #704B45",
"f. c #62574C",
"g. c #637156",
"h. c #585D61",
"j. c #525F68",
"k. c #546067",
"l. c #5C6366",
"z. c #56646C",
"x. c #58616A",
"c. c #5A6873",
"v. c #596573",
"b. c #697664",
"n. c #A77375",
"m. c #72846B",
"M. c #8A9785",
"N. c #BFA39F",
"B. c #BEAF9A",
"V. c #BDA195",
"C. c #BDA9A0",
"Z. c #BCAFA9",
"A. c #CD9795",
"S. c #CA9F99",
"D. c #D39F94",
"F. c #C2A796",
"G. c #CAA396",
"H. c #C6A59D",
"J. c #CCA99C",
"K. c #CBA69E",
"L. c #D6A297",
"P. c #D3A29E",
"I. c #CF9CA3",
"U. c #CBAEA3",
"Y. c #DFA4A0",
"T. c #D0AAA1",
"R. c #DBA9A2",
"E. c #D7B6A7",
"W. c #DAB0A4",
"Q. c #E3B4A4",
"!. c #E3B5A8",
"~. c #E6B8A9",
"^. c #EBAEB5",
"/. c #E7B4B1",
"(. c #D6C0B2",
"). c #DBCCBC",
"_. c #D6D2B9",
"`. c #EACABB",
"'. c #D6CBC7",
"]. c #D5CBC9",
"[. c #E2CFC1",
"{. c #E1D0C6",
/* pixels */
"q u y y i y y y u t u q t p r i t t < i y y y y y u i r y y r < ",
"u D S F D F F D r p p Z d d g i r F { =.F S F Z g D S F S #.S S ",
"y S #.#.S F D #.p F *.g F { #.F s *.k h #.F D $.d D #.F F S D #.",
"y S F D F k F D y { F k F F F G d D V F F =.F h d @.*.S S F h F ",
"i D F F { k #.F V F S *.G N C + z X , C V D S #.g S { #.#.F F #.",
"y F F k k F F F p V #.F V , @ ^ * ^ ^ * + G $.#.g S k k F { F S ",
"y D F F F F F #.S h { G O <.2.y.R 2.2.X.E     L g @.F F { F S F ",
"y F $.F #.D F D d F k F A o y.u.i.p.p.a.y./ ( @ d F #.F S F D #.",
"r h d d g f d d N p i f   ' f.t.t.p.3.p.O...' # i g a d d d N d ",
"u D D S F F D D i #.=.H % 3.U / y.3.t.y.u.p.E % z F Z F F G D F ",
"y S S S #.F D S f F g = ^ o.P.R y._ o.5.f.) ` T > g F F F V S G ",
"i D F F F F #.D N h =.K o u.R.G.5.H.o.d.[ a.W o z -.F h $.F F F ",
"y F *.D *.F *.F p $.S Z * K.$ L./.$ H.u.R p.' ` O g { { *.D F F ",
"y D F k S k S F g F $.O R S.3 ~.W.5 J.A.n.u. .* V *.k g G $.F k ",
"y #.#.F #.F F F y { h S * U.E.W.~.Q.F.T._ ( X.  u F { F F F D F ",
"y S F F *.k F F V F j V C . Y.!.Q.Q.D.Q X.] + A a S F F F F F F ",
"r d i d g d d g a a i i S p & G.G.J.% R <.% d N u d d i g g d y ",
"d D S F #.D D F h g =.F k , 8 U.F.J.b m.b - k &.N $.D #.$.D D S ",
"y D S F F S F F d G $.S F X T (.`.V.4.b.! X &.#.d S #.S F F #.F ",
"y S S F *.k S F d S D C O | 8 {._.).X.M.x v @ B d D D F F k F F ",
"y S #.#.*.k F #.d F F A % X.x N.).'.T } m.E & { g F F #.*.k *.F ",
"y S F F #.k S F d *.F X ( Y v '.H.'...I g.X.} O g F F S S F #.k ",
"y F #.F { S F F g k { ; Z.x P 0.>.8.M C g.I.^.+ g S S F #.F F F ",
"y F F F F D F D p F k A % # 8.,.0.9.8.>.-   & Z g S D D F k F F ",
"q g g i g f d d d u g N l , h.x.l.z.9.e.O n s d i g g d d f d d ",
"u G #.S D F D #.g G S =.V > z.c.w.z.v.0.O V =.*.g #.D S S S #.#.",
"y S D S #.F D S p h k k =.O j.:.: :.k.w.O G F g d D S S F D D S ",
"y S D F F D #.S a ;.{ F V O 8.r.O 8.l.8.O Z =.k d S D D #.S #.S ",
"i G F F #.F F F y $.@.S J ; 7 c # 7 c M + V g #.g D F #.F F F F ",
"y F F k F k F F g S S -.X 4.6.6 # 3.5.| + %.D #.d F F D S F F F ",
"y D #.F F F F #.p S g d 4 4 2 4 2 4 4 4 t u y a d F F F F k F F ",
"i D #.k { F F F a D #.u p i i i e p p p t V i Z g S F F #.k *.F "
};
