/* XPM */
static char *_281b3afe3fc4b63e73cc1370ba523c6BfzlwtMMdZrTNvdo[] = {
/* columns rows colors chars-per-pixel */
"32 32 188 2 ",
"   c #030202",
".  c #0B0403",
"X  c #020B03",
"o  c #0A0A05",
"O  c #070709",
"+  c #030C0B",
"@  c #0B0B0A",
"#  c #120202",
"$  c #130A05",
"%  c #190B01",
"&  c #19000F",
"*  c #120D0B",
"=  c #13020A",
"-  c #07110B",
";  c #0F120B",
":  c #16110D",
">  c #050F11",
",  c #0B0A10",
"<  c #130711",
"1  c #120D11",
"2  c #0B1A1F",
"3  c #131414",
"4  c #141C1B",
"5  c #141C11",
"6  c #2E1300",
"7  c #17201D",
"8  c #1A231A",
"9  c #28230F",
"0  c #23241F",
"q  c #2B2E19",
"w  c #2C251D",
"e  c #392C1C",
"r  c #0D1F23",
"t  c #131E24",
"y  c #0E2225",
"u  c #142325",
"i  c #132D26",
"p  c #192823",
"a  c #132529",
"s  c #1B262C",
"d  c #162A2D",
"f  c #1A2A2D",
"g  c #1B2524",
"h  c #1B332D",
"j  c #192730",
"k  c #1B2E32",
"l  c #122E32",
"z  c #0D3331",
"x  c #123633",
"c  c #1D3235",
"v  c #1D3836",
"b  c #1D3539",
"n  c #1D3B3C",
"m  c #2C2522",
"M  c #2E2926",
"N  c #26262E",
"B  c #242C2D",
"V  c #3B2C23",
"C  c #32292B",
"Z  c #3D2C2C",
"A  c #36252B",
"S  c #3A3026",
"D  c #222D33",
"F  c #2D2C35",
"G  c #233435",
"H  c #2C3432",
"J  c #233936",
"K  c #2B3937",
"L  c #24373B",
"P  c #2B363B",
"I  c #253A3D",
"U  c #2A3C3D",
"Y  c #363B37",
"T  c #3B3831",
"R  c #31353E",
"E  c #313F3E",
"W  c #313534",
"Q  c #421F23",
"!  c #402720",
"~  c #4F2D24",
"^  c #43322D",
"/  c #4D352E",
"(  c #4D3B2D",
")  c #423534",
"_  c #4A3534",
"`  c #4D3C36",
"'  c #473438",
"]  c #533531",
"[  c #573F33",
"{  c #5C3B34",
"}  c #533B3B",
"|  c #583C3B",
" . c #5F343B",
".. c #24433D",
"X. c #2A433C",
"o. c #454535",
"O. c #494836",
"+. c #46413D",
"@. c #4D423C",
"#. c #4D4133",
"$. c #53443C",
"%. c #5D453E",
"&. c #5B493F",
"*. c #67443E",
"=. c #6A423A",
"-. c #68483D",
";. c #2D3741",
":. c #253C42",
">. c #293C41",
",. c #343642",
"<. c #244142",
"1. c #2D4349",
"2. c #2A4246",
"3. c #394D4E",
"4. c #314345",
"5. c #3E4B53",
"6. c #4E4741",
"7. c #4F4E49",
"8. c #434C4B",
"9. c #544944",
"0. c #5D4B44",
"q. c #5D4543",
"w. c #5A5047",
"e. c #474D53",
"r. c #4C4D52",
"t. c #514F52",
"y. c #435153",
"u. c #435058",
"i. c #4D5459",
"p. c #565A5D",
"a. c #644641",
"s. c #634B44",
"d. c #6A4944",
"f. c #674E4A",
"g. c #6A4E4A",
"h. c #665144",
"j. c #64504B",
"k. c #6B514B",
"l. c #61755C",
"z. c #555F6B",
"x. c #4E6167",
"c. c #4D646A",
"v. c #5A6466",
"b. c #586C6B",
"n. c #536569",
"m. c #4E6670",
"M. c #586C75",
"N. c #6A7462",
"B. c #6F7A6C",
"V. c #747A6E",
"C. c #A7756C",
"Z. c #8B8F7E",
"A. c #BCAA9E",
"S. c #BEACA4",
"D. c #CE9D8F",
"F. c #CC9D97",
"G. c #C49D98",
"H. c #D69F9A",
"J. c #DD9C98",
"K. c #CBA095",
"L. c #C7A59A",
"P. c #C1A399",
"I. c #CCA59C",
"U. c #C9AE9D",
"Y. c #D3A59E",
"T. c #D9A49E",
"R. c #C5B09D",
"E. c #CEA2A0",
"W. c #CDADA0",
"Q. c #CAADAF",
"!. c #D0ACA0",
"~. c #C3B0AC",
"^. c #DFBBA3",
"/. c #DBBDBD",
"(. c #E8AEA0",
"). c #EEAFA8",
"_. c #E4ADAA",
"`. c #F3ADAD",
"'. c #E4B1A2",
"]. c #E6B7A5",
"[. c #EABFAC",
"{. c #EEB3AD",
"}. c #D6CEB7",
"|. c #D6CAB8",
" X c #E7C6BD",
".X c #DCCDC6",
"XX c #DBD6C2",
"oX c #E1C8CB",
/* pixels */
"t f a a d a a a s t s u a d s g k y d a j u s u a d a u a a r 2 ",
"f P L L I L I I y L d c c d h p 4 K U G L 1.k U c L I L I I L L ",
"a L I I U L I >.d L J K K E - ; @ Y - G >.I U U k I :.I I I I I ",
"a L I I I b L I k K O * . # ^ ^ _ # T + L I :.L k I U I I L L I ",
"d I U I U I I I D + ) _ _ | g.d.a.] j.* K G I >.c I U I U U I U ",
"a L L L I I I I d K * ` s.f.%.g.k.a.s.9.@ U U L k L I L I U I I ",
"a I I L I I I I G + @.%.s.s.j.&.0.a.a.j.@ U I I c I U I U I I I ",
"a U >.I I I I I s * ` d.d.a.s./ ^ k.d.q.  K L U k L I I I I I I ",
"u c k f k k k k # } _ } 0.s.=.T./ h.~ s.}   f x d c k k k k k k ",
"f U I L I I I I h . _ s.s.h.L.I.L.-.W.*.  J J F c U I I I I I I ",
"a L I L I I I L i o $.s.=.H.!.. ).K.% E.+.  <.R k I L I I I I L ",
"a I I I U I I I 3 ' ] d.C.J.K.9 (.[.6 G.# F n <.k I I I I I I I ",
"a I U I U I U I d =  .{ [ L.Y._.^.'.{.S.  U L I k I I I U I U I ",
"a I I L I L I I x U @ @.@.( Y.`.].'.F.X U c ,.v k I L L L L I I ",
"a I U I U I I I k n n W $ $.[ K.D.I.% X.c ;.P ..k I I I I L U U ",
"a I U I U I I I F L I < A V.q U.R.P.V . <.:.n J k I I I I L U I ",
"t k f f c k k k B B B + Z B.o. X XS.M 1 D k c N f D f k c k k a ",
"f I I I >.I I U z J @ m ^ Z.o.|.}.XXS }   I n <.c U I I U I I L ",
"d I I I U L I I z K * $.N.O.#.A.|.|.e $.: K n I k I I I I L I I ",
"a L I I U L I I c 1 } ] l.V } oX~..XV ! ` + U P k I I I I L I I ",
"a I >.U U I I I i * /.E.N.) C e.y.e.Z Q Q.@ G >.c U I I U I U I ",
"a L I I I L I I h H o . X 8.5.M.m.c.v.*   U v L k I L L I I U L ",
"a I U I U I I I f L U X.+ 3.M.z.e.n.b.+ U ..n ;.k I I I U I U I ",
"a I I L I I I I b n I L & i.x.u., i.p.1 H I n >.k I I I I L I I ",
"u c k d k k k k B f K u > e.v.y.+ r.t.O B f c k d c k k k k k k ",
"f I I L I I I I b b v E @ C m m o M C @ H U c :.c U I I I I I I ",
"a L I L I I I L l 1.L G @ 9.w.0.$ w 6.7.+ U >.:.k I L I I I I L ",
"a I I I U I I I D s a G 7 8 5 8 3 0 0 4 g s y :.k I I I I I I I ",
"a I U I U I U I D P G f f f h i s f f u D u U >.k I I I U I U I ",
"a I I L I L I I d v v I I L :.>.k :.n 2.G U 4.f k I L L L L I I ",
"a I U I U I I I v <.n :.L L I >.G L n :.>.D >.<.k I I I I L U U ",
"a I U I U I I I k I I L U L X.v s K J U G >.L n k I I I I L U I "
};
