/* XPM */
static char *f6999dd0aa3d4618acb38bbaec1c01eewxjDUH1XhgIOnB52[] = {
/* columns rows colors chars-per-pixel */
"32 32 177 2 ",
"   c #040602",
".  c #0D0401",
"X  c #060903",
"o  c #0A0A03",
"O  c #06070A",
"+  c #0C060C",
"@  c #030C0C",
"#  c #0B0C0B",
"$  c #140302",
"%  c #140905",
"&  c #130C0A",
"*  c #0A1006",
"=  c #051208",
"-  c #0B130E",
";  c #11110D",
":  c #060E12",
">  c #0B1315",
",  c #071619",
"<  c #1C1F1A",
"1  c #161C19",
"2  c #2A0B00",
"3  c #261700",
"4  c #1E231D",
"5  c #22221A",
"6  c #38261A",
"7  c #0D1F23",
"8  c #111E24",
"9  c #0E2323",
"0  c #132325",
"q  c #192825",
"w  c #13252A",
"e  c #1B262C",
"r  c #16292C",
"t  c #1A2B2D",
"y  c #192322",
"u  c #08302F",
"i  c #19322F",
"p  c #172F32",
"a  c #1B2E32",
"s  c #163031",
"d  c #1D3134",
"f  c #1E363A",
"g  c #1D3A3B",
"h  c #1C3D36",
"j  c #2E2623",
"k  c #202A22",
"l  c #2E2A25",
"z  c #222D2C",
"x  c #2C2E2E",
"c  c #342624",
"v  c #342B24",
"b  c #3A2922",
"n  c #3C2A2C",
"m  c #362C2A",
"M  c #3F342E",
"N  c #38372C",
"B  c #222D32",
"V  c #282D30",
"C  c #223234",
"Z  c #2D3733",
"A  c #293835",
"S  c #23363A",
"D  c #2A363B",
"F  c #253A3D",
"G  c #2A3B3D",
"H  c #30373F",
"J  c #373636",
"K  c #41241E",
"L  c #412521",
"P  c #492F2E",
"I  c #442D25",
"U  c #522A28",
"Y  c #483225",
"T  c #493628",
"R  c #4E382B",
"E  c #45332F",
"W  c #53302C",
"Q  c #443633",
"!  c #4D3433",
"~  c #463B35",
"^  c #4B3C34",
"/  c #493E3A",
"(  c #513736",
")  c #523A35",
"_  c #5B3D34",
"`  c #543C3A",
"'  c #583F3A",
"]  c #603637",
"[  c #28413B",
"{  c #4E4132",
"}  c #4C423B",
"|  c #454231",
" . c #54423D",
".. c #5C433B",
"X. c #57493E",
"o. c #5C4A3E",
"O. c #63483F",
"+. c #1D3F40",
"@. c #243D42",
"#. c #2A3D41",
"$. c #313F40",
"%. c #673F40",
"&. c #254245",
"*. c #2B4144",
"=. c #314043",
"-. c #314449",
";. c #3C494F",
":. c #3F4D50",
">. c #4C4741",
",. c #4E4945",
"<. c #42474A",
"1. c #5F4641",
"2. c #534D45",
"3. c #5C4B43",
"4. c #4E504F",
"5. c #5C534A",
"6. c #525246",
"7. c #454D54",
"8. c #4A4F53",
"9. c #455054",
"0. c #42515D",
"q. c #4E575E",
"w. c #4E5C5F",
"e. c #4A5456",
"r. c #644442",
"t. c #6B4644",
"y. c #674A46",
"u. c #654E47",
"i. c #624B44",
"p. c #634F48",
"a. c #6D4A48",
"s. c #704A49",
"d. c #635049",
"f. c #6C534F",
"g. c #6F5350",
"h. c #6F6D5E",
"j. c #617157",
"k. c #70755F",
"l. c #556167",
"z. c #5C6366",
"x. c #55646C",
"c. c #657664",
"v. c #7E776F",
"b. c #A46E6E",
"n. c #899B85",
"m. c #BEAE9F",
"M. c #BDA6A0",
"N. c #C69E9C",
"B. c #C89D94",
"V. c #D09E97",
"C. c #C5A69A",
"Z. c #CCA49B",
"A. c #C7A99F",
"S. c #CCA093",
"D. c #D5A196",
"F. c #D3A19D",
"G. c #D6A89C",
"H. c #E3B39E",
"J. c #C3A6A0",
"K. c #CFA6A0",
"L. c #C5ABA2",
"P. c #DEA9A5",
"I. c #D5AAA3",
"U. c #C3B1AF",
"Y. c #DDB8AF",
"T. c #DBB6A4",
"R. c #E5B6A8",
"E. c #ECBAAC",
"W. c #E4B6A6",
"Q. c #F3B1B3",
"!. c #CBCFB8",
"~. c #D8C5B7",
"^. c #DBC7BC",
"/. c #DDC8B9",
"(. c #D1D6B8",
"). c #E5CBBC",
"_. c #D2CEC8",
/* pixels */
"8 t w w r w w w 0 0 0 t 9 w t 9 0 w r r w w r 9 w r w 0 w w 7 , ",
"t D S S F S F F r a t t B a C t t F F S S F F G d S F S F F S S ",
"w S F F F S F #.w F F S #.S S #.0 S F F *.F S G a F G F F F F G ",
"w S F F F f S F t G F @.f #.#.S d F F f f F F S a F F F F S S F ",
"r F F F F F F F t F S @.@.f S G a S G @.S F @.#.d F F F F F F F ",
"w S S S F F F F C C F S S F A - z # O z $.G f @.a S F S F F F F ",
"w F F S F F F F w -.S G G # . Q . ~ ~ & # x #.F d F F F F F F F ",
"w G #.F F F F F d F d G O / f.t.T i.O.' E & @ G a S F F F F F G ",
"0 d a t a a a a i C u V x * r.6.1.u.X.a.i.P >.$ C d r p a a a a ",
"t G F S F F F F e H g F   ~ p.s.d.i.a.5.r.' `   t F S F F S F F ",
"w S F S F F F S d G *.C $ g.I W y.3.' p.r.3. .% C #.F f G F F S ",
"w F F F F F F F r f @.+ Q 3.F.R t.) 5.a.u.` M ! @ C G F #.S S F ",
"w F F F F F F F C f g G o o.P.B.i.N.i.y.3.%.` $ t *.F S #.#.F F ",
"w F F S F S F F t &.D F % K.$ D.Y.2 Z...U f.( } : d F F F S S S ",
"w F F F F F F F s +.D @ ! F.3 R.R.2 Z.I.b.3./ % C G S S F G G F ",
"w F F F F F F F V &.S H o C.E.W.T.E.S.V._ ]  .o t F F F F F #.F ",
"8 a t t d a a a d r C 0 t ; C.H.H.R.Z._ .. .+ B t B t a d a a w ",
"t F F F #.F F G r *.S *.#.V $ G.G.Z.$ 1.! X [ F d G F F G F F S ",
"r F F F F S F F z C S @.@.: v L.L.J.v v.n - h S a F F F F S F F ",
"w S F F F S F F z G @.f S O Q ^.!.L.} c.l . G #.a F F F F S F F ",
"w F #.F F F F F t #.f F > / 6 /.(.).{ n.N c O F d F F F F F F F ",
"w S F F F S F F a f *.G .  .Y m./.~.{ | h.2.X F a F S S F F F S ",
"w F F F F F F F a F F   ` K b _.U._.} v k.^ ` = a F F F F F F F ",
"w F F S F F F F a S G # M.L M 7.:.e.n N j.Z.Q.X a F F F F S F F ",
"0 d a t a a a a d r C z # X z.l.l.x.0.q.  ; O t r d a a a a a a ",
"t G F S F F F F d #.F S D > x.x.7.x.l.;.> Z G #.d G F F F F F F ",
"w S F S F F F S t S f @.F @ l.0.: 9.l.w.@ C d @.a F S F F F F S ",
"w F F F F F F F t #.@.F G @ 8.7.O 4.z.<.@ G *.g a F F F F F F F ",
"w F F F F F F F S d @.S Z   m c o j j l # G S F a F F F F F F F ",
"w F F S F S F F w -.F =.@ 2. .c & 2.5.,.@ G C G a F S S S S F F ",
"w F F F F F F F C F a 9 y 4 1 4 1 < 5 < y a t t a F F F F S F F ",
"w F F F F F F F t G F a t t t t r q k z t a p F a F F F F S F F "
};
