/* XPM */
static char *cb6411e7016942c3b06cd759e834dbefPv1ARGAa9opt8cxH[] = {
/* columns rows colors chars-per-pixel */
"32 32 181 2 ",
"   c #020603",
".  c #0D0504",
"X  c #020A03",
"o  c #0B0A04",
"O  c #040B0B",
"+  c #0A0A0C",
"@  c #160607",
"#  c #120902",
"$  c #130709",
"%  c #120B0C",
"&  c #180809",
"*  c #11100D",
"=  c #0C0E14",
"-  c #1B0B18",
";  c #051413",
":  c #0C1213",
">  c #0B1A1F",
",  c #131413",
"<  c #1A1B1B",
"1  c #200B08",
"2  c #211D1E",
"3  c #17201F",
"4  c #2E261B",
"5  c #322B1D",
"6  c #0D1F23",
"7  c #111E24",
"8  c #3A1F24",
"9  c #092529",
"0  c #0F282A",
"q  c #132226",
"w  c #1A2524",
"e  c #102A27",
"r  c #1D2C27",
"t  c #13252A",
"y  c #18252C",
"u  c #162A2C",
"i  c #1A2A2D",
"p  c #1B312F",
"a  c #1B2E32",
"s  c #142B35",
"d  c #0F3631",
"f  c #1E3134",
"g  c #1C3836",
"h  c #1D3639",
"j  c #1E3B3B",
"k  c #202020",
"l  c #2D2523",
"z  c #2F2629",
"x  c #212B2C",
"c  c gray16",
"v  c #312526",
"b  c #322E23",
"n  c #312728",
"m  c #312D2C",
"M  c #3D2F2B",
"N  c #273224",
"B  c #24332F",
"V  c #35322B",
"C  c #3C332C",
"Z  c #222D34",
"A  c #282D33",
"S  c #3E2E31",
"D  c #233335",
"F  c #2A3533",
"G  c #243936",
"H  c #2A3A35",
"J  c #24363A",
"K  c #2C373B",
"L  c #253A3D",
"P  c #2A3B3D",
"I  c #383431",
"U  c #3E3A37",
"Y  c #313C3B",
"T  c #492622",
"R  c #44252A",
"E  c #43332D",
"W  c #4B352C",
"Q  c #52352F",
"!  c #513B2E",
"~  c #443633",
"^  c #4C3632",
"/  c #4B3A36",
"(  c #4E3B3A",
")  c #503730",
"_  c #553A36",
"`  c #553D3A",
"'  c #5A3F3C",
"]  c #25403B",
"[  c #2B413F",
"{  c #4E4037",
"}  c #45403C",
"|  c #4C403D",
" . c #454135",
".. c #54433C",
"X. c #5C423E",
"o. c #544739",
"O. c #63423B",
"+. c #63483F",
"@. c #1E3D42",
"#. c #2D3741",
"$. c #243E41",
"%. c #293C41",
"&. c #393C41",
"*. c #333E44",
"=. c #274140",
"-. c #294141",
";. c #394B4D",
":. c #3D504E",
">. c #3B4A51",
",. c #345053",
"<. c #3C5454",
"1. c #38565C",
"2. c #4C4241",
"3. c #444E4E",
"4. c #4C4C4D",
"5. c #5E4642",
"6. c #5E4B44",
"7. c #5C4C4A",
"8. c #564C4D",
"9. c #464D57",
"0. c #4D4E50",
"q. c #45565E",
"w. c #4C515C",
"e. c #40585A",
"r. c #445354",
"t. c #614641",
"y. c #654541",
"u. c #674645",
"i. c #654341",
"p. c #684742",
"a. c #614A43",
"s. c #614945",
"d. c #644C45",
"f. c #6A4A45",
"g. c #694D46",
"h. c #6C4C45",
"j. c #634648",
"k. c #674E4A",
"l. c #66494B",
"z. c #694D49",
"x. c #6E4D49",
"c. c #6B4D4A",
"v. c #645046",
"b. c #67534A",
"n. c #586F52",
"m. c #616E50",
"M. c #677458",
"N. c #6F775F",
"B. c #647A5B",
"V. c #717B5E",
"C. c #4F5B67",
"Z. c #5B5F62",
"A. c #5A5969",
"S. c #56606A",
"D. c #5F696B",
"F. c #546265",
"G. c #5B6574",
"H. c #576870",
"J. c #786D67",
"K. c #6D7A61",
"L. c #6B7668",
"P. c #6D7C6B",
"I. c #787360",
"U. c #717D6F",
"Y. c #7D7D6D",
"T. c #747963",
"R. c #81775C",
"E. c #807E71",
"W. c #887974",
"Q. c #658362",
"!. c #6D8363",
"~. c #66836D",
"^. c #8EA27D",
"/. c #879B80",
"(. c #8A9881",
"). c #969C8B",
"_. c #82A489",
"`. c #C8A69D",
"'. c #CDA1A2",
"]. c #D3B4AF",
"[. c #D5B2B0",
/* pixels */
"7 i t t u t t t w t t t y q i q e t y s 9 t y q t u t q t t 6 > ",
"i K J J L J L L q i f u D x X x w + + F G Y D -.f J L J L L J J ",
"t J L L P J L %.t %.L G Y * U . o / ~ o * + K g a L %.L L L L L ",
"t J L L L h J L a -.G F o / 5.^ E z.g.W E ~ O j a L P L L J J L ",
"u L P L P L L L a D F , 7.t.y.x.k.i.O.b...& &.j f L P L P P L P ",
"t J J J L L L L D K + M z.y.x.y.s.u.x.W ^ 7.+ L a J L J L P L L ",
"t L L J L L L L u O I ` p.p.z.6.5.g.Q 5.5.l.. H f L P L P L L L ",
"t P %.L L L L L i Y o s.f.p.6.7.v.t.X.v.z.y./ X a J L L L L L L ",
"q f a i a a a a a x # ..a.X._ u.^ 6.b.a.+.^ o f u f a a a a a a ",
"i P L J L L L L f O | ` g.g.a.^ t.k.X.y.h.` o F f P L L L L L L ",
"t J L J L L L J p H . ' Q y.d.6.f.s.g.g.O.` 2.: a L J L L L L J ",
"t L L L P L L L u P + | X._ k.5.f.c.' z.X.( O G a L L L L L L L ",
"t L P L %.L P P f J D   2.X.X.x.X.5.j.` ^ * P $.a L L L P L P L ",
"t L L J L J L L a %.-.Y o ( X.) o.{ ..( $ F J @.a L J J J J L L ",
"t L P L P L P L a f D + v W.5 T.N.Y.4 J.V O %.$.a L L L L J P P ",
"t L P L P L L L i [ F + E 5 K.Q.!.M.Y.b b X K J a L L L L J P L ",
"7 a i i f a a a s A o R S 8 Y.V.R.V.K.T b M o x i Z i a f a a t ",
"i L L L %.L L P h F X  .P.N Q.^./._.~.C U.} O G f P L L P L L J ",
"u L L L P J L L x o o.{ X P.!.m.B.n.B.I.o ! { o a L L L L J L L ",
"t J L L P J L L r . [.'.1 V L.).(.).E.5 # `.].# a L L L L J L L ",
"t L %.P P L L L d P $ @ . 3.r.:.<.w.9.;., % + P f P L L P L P L ",
"t J L L L J L L 0 L P J ; e.S.G.H.C.H.1.O D P j a L J J L L P J ",
"t L P L P L L L Z L %.g O r.A.G.Z.D.F.<.. H G G a L L L P L P L ",
"t L L J L L L L Z g J ] % 3.w.1.= >.q.,.- P j #.a L L L L J L L ",
"q f a u a a a a a a i i + 4.0.O x : 0.4.O f a a u f a a a a a a ",
"i L L J L L L L i P P Y + m z   r = z v + B G f f P L L L L L L ",
"t J L J L L L J p G G   4.l l % B   n v 8.: G -.a L J L L L L J ",
"t L L L P L L L i u p r < < c < ; w k 2 < 3 u u a L L L L L L L ",
"t L P L P L P L D J i i r i r r x i i r i i D J a L L L P L P L ",
"t L L J L J L L a %.J J L L J $.Z D P L j %.%.J a L J J J J L L ",
"t L P L P L L L a L L j -.L %.h Z L $.j L J L P a L L L L J P P ",
"t L P L P L L L a P j =.f L L %.f P J J *.D P j a L L L L J P L "
};
