/* XPM */
static char *new_char_up_11701886693[] = {
/* columns rows colors chars-per-pixel */
"32 32 168 2 ",
"   c #030502",
".  c #0D0303",
"X  c #010B05",
"o  c #0B0C03",
"O  c #020609",
"+  c #0E0609",
"@  c #040C0B",
"#  c #0B0A0C",
"$  c #120402",
"%  c #1A0300",
"&  c #130A04",
"*  c #14070C",
"=  c #130C0C",
"-  c #0A1005",
";  c #0A0D11",
":  c #120D13",
">  c #031314",
",  c #0D1213",
"<  c #0B1A1F",
"1  c #1A1B1B",
"2  c #211D1E",
"3  c #0C221F",
"4  c #17201F",
"5  c #2A2E1D",
"6  c #342C1F",
"7  c #0D1F23",
"8  c #111E22",
"9  c #0D2D2A",
"0  c #142226",
"q  c #1B2426",
"w  c #1A2D25",
"e  c #13252A",
"r  c #1B252A",
"t  c #162A2B",
"y  c #1A2A2D",
"u  c #1D322E",
"i  c #1A2737",
"p  c #142833",
"a  c #1B2E32",
"s  c #153134",
"d  c #1E3234",
"f  c #1E3837",
"g  c #1E3539",
"h  c #1D3B3C",
"j  c #202020",
"k  c #2D2523",
"l  c #202B25",
"z  c #2D2D23",
"x  c #2F2629",
"c  c #202B2D",
"v  c gray16",
"b  c #322426",
"n  c #3F2621",
"m  c #332D22",
"M  c #312728",
"N  c #312D2C",
"B  c #3E292B",
"V  c #2F3124",
"C  c #23342E",
"Z  c #2C372F",
"A  c #3E3025",
"S  c #33332B",
"D  c #3B332C",
"F  c #212D33",
"G  c #223335",
"H  c #2B3434",
"J  c #233A36",
"K  c #2B3935",
"L  c #24363A",
"P  c #2C363A",
"I  c #253A3D",
"U  c #293B3D",
"Y  c #3F3335",
"T  c #33363D",
"R  c #313B3A",
"E  c #44272C",
"W  c #452E28",
"Q  c #43312D",
"!  c #4B322B",
"~  c #4F3C2E",
"^  c #473532",
"/  c #4C3736",
"(  c #4C3C34",
")  c #443D3A",
"_  c #4C3A38",
"`  c #553533",
"'  c #533B34",
"]  c #50353A",
"[  c #523B39",
"{  c #5B3C3A",
"}  c #26403E",
"|  c #2D413F",
" . c #4B4336",
".. c #4D413C",
"X. c #534137",
"o. c #53423A",
"O. c #5E443E",
"+. c #52483C",
"@. c #5C493E",
"#. c #62443E",
"$. c #1E3D42",
"%. c #253542",
"&. c #233E41",
"*. c #293C41",
"=. c #323C44",
"-. c #613F40",
";. c #254243",
":. c #2A4142",
">. c #394948",
",. c #395257",
"<. c #3A565A",
"1. c #4F4543",
"2. c #434449",
"3. c #4C4C4D",
"4. c #514443",
"5. c #5D4441",
"6. c #5E4A44",
"7. c #524648",
"8. c #564C4D",
"9. c #434E54",
"0. c #4D4E50",
"q. c #444F58",
"w. c #4E4E58",
"e. c #435354",
"r. c #4B5255",
"t. c #41545B",
"y. c #624542",
"u. c #6A4743",
"i. c #634A45",
"p. c #694C45",
"a. c #644C4A",
"s. c #6A4E49",
"d. c #625046",
"f. c #65514A",
"g. c #6A514C",
"h. c #635451",
"j. c #5D714C",
"k. c #61674B",
"l. c #637356",
"z. c #6B755D",
"x. c #6C7A5B",
"c. c #4B626A",
"v. c #53636C",
"b. c #4D6E73",
"n. c #5A6873",
"m. c #786F66",
"M. c #667562",
"N. c #6C7764",
"B. c #6B7B64",
"V. c #697F68",
"C. c #737665",
"Z. c #717D62",
"A. c #797D66",
"S. c #757168",
"D. c #7A736D",
"F. c #75796A",
"G. c #7C786D",
"H. c #6B8166",
"J. c #708065",
"K. c #718369",
"L. c #8FA57F",
"P. c #8A9D85",
"I. c #919789",
"U. c #A09D94",
"Y. c #93A084",
"T. c #CEACA7",
"R. c #D2B6B2",
"E. c #DAB7B5",
/* pixels */
"8 y e e t e e e e q w 8 e t e e e e q 0 y e r q e t e e e e 0 < ",
"y L L L I L I I 0 F y J t y d u 3 | U U d } L I d L L L L U L h ",
"e L %.U &.L I *.r *.$.h *.K @ J l X X K J U L h a I *.&.&.U I I ",
"e L U I L L L I a &.h g T + Y - . 4.Q & = # K U a I U L h L L I ",
"t I U I ;.I I I G d } K * ] 6.W ` #.s.! _ ^ ; L s L ;.I I U I &.",
"e L h L L I I I d U J # 6.-.s.s.u.i.d.@.6.* K U d L h L L &.I I ",
"e I I L I U I U y K o ^ p.p.#.i.6.6.@.~ W h.@ J d I &.U U I L I ",
"e *.&.U &.L &.L y , ^ ! p.5.f.6.a.i.! u.u.5.# L a L &.L L I I U ",
"8 a a a s a a a 9 y = i.@.i.g.i.y.f.d.#.u.u._ O t d a a a a a a ",
"y *.U L U I U I J H $ [ d.i.W i.` g.5.p.#.(   R a U I L I L *.I ",
"e L I L &.I I L a O 7.5.5.i.f.! y.6.i.i.i.o.  K a I L L I I I L ",
"e L I I &.L U L G P + _ [ u.i.i.6.5.i.i.i.o.1.@ a L L *.I I I I ",
"e *.U I } I ;.I t *.O 4.[ { u.s.i.f.a.y.O.o.O K d &.U &.*.I U I ",
"e L U h h h L I s I K = _ 5.y.5.#.u.{ {  .  U I a L L L L L I L ",
"e *.%.I I I I U g L U Z $ o.o.+.o.o.[ ( o Z } $.a I I I I L &.I ",
"e I U I &.L I I e :.G @ S S.m C.B.Z.V G.z @ P %.a I I U &.h I I ",
"8 a t a a a a a a d w X m 6 J.x.x.J.V.W 6 $ w c y F a a a a a e ",
"a &.L L *.I I &.p =.: B E A G.H.Z.x.M.W D b , U d *.L U *.U I L ",
"r I L I U L L U g H   ..D.V M.P.L.Y.H.5 N.4.@ L a I L I U L %.U ",
"e L I I I h I L u o  . .o B.V.l.j.k.z.Z.- ~ ) o a I I I I h I I ",
"e L &.U } h I &.w o R.T.% S B.P.I.U.S.V $ T.E.$ d &.U &.I h } I ",
"e L U h I I L I G T * . * 2.r.e.q.t.q.t.* . * K a L h L I I I h ",
"e I &.I &.L I %.a *.L } > q.v.n.v.b.c.<.; d J ;.s U U I U I &.I ",
"e L I L U L I L g f J J @ w.q.,.= >.r.0.* } I h a I L L I L I I ",
"8 G a a a s d a a a p r , 3.3.@ c ; 3.3.@ F a i r d a a a a a d ",
"y %.U L I L U I a U P R # N N O r ; x b = C J J d *.I L L L %.I ",
"e L I L %.I I L u J J X 3.b 5 * G   x b 8., J :.a L L I U I U L ",
"e I I I U I I L y w u y 4 1 k 1 > q 5 2 1 4 t t a L L I I L U I ",
"t &.U I } U U I G U y y e y y y c r y w y y J L d I I &.&.I U U ",
"e L I h I h I L i *.L L I U L &.F G ;.U I &.I L a I L L L h I h ",
"e I U I &.h &.U d L I I :.L &.g d L &.h L L U I a I I I I L I I ",
"e I &.I U I I L t } h } d U L U d L h L =.L U h a I I U U h &.I "
};
