/* XPM */
static char *bf1e9dd27fe94d57fbbf83c053ad8c53mCde9quUkdacf36G[] = {
/* columns rows colors chars-per-pixel */
"32 32 5 1 ",
"  c #06050D",
". c #333941",
"X c #4A5462",
"o c #1F242B",
"O c white",
/* pixels */
" ..XXX.oooooo     o....o.......o",
" .....ooooooo    oooooo.........",
" X....oooooooo   oooooo.........",
" X......ooooooo  ooooo..........",
" .......oooooooo  ooo..........X",
" ....oo.....oooo ...............",
" ....oo........o oo...........oo",
"                                ",
"......oo o.XXX.XXXXX.... o.XXXX.",
"......oo o.............. o......",
"......oo ............... X......",
".......o ............... X......",
"........ o.............. .......",
".......o o.............o .......",
"......oo o..XX........oo oo....X",
"                                ",
" o.XXXXX.......o o.XXXX.XXX...o.",
" ............... X.............o",
" X.............. X..............",
" X.............. ...............",
" ............... ...............",
" o.............. o.............X",
" oo...........oo oo.............",
"                                ",
"X...oooo oo.XXXX...XXXoo  o.X...",
"oooo...o .o...X.....XX.. .......",
"........ X.............. X......",
"........ ............... X......",
"........ ............... .......",
"........ o.............. .......",
".......o oo............. o......",
"                                "
};
