/* XPM */
static char *_b19af8831ee43f6866ea5bf4909541a5VgEUph1m0SNb8qN[] = {
/* columns rows colors chars-per-pixel */
"32 32 195 2 ",
"   c #010301",
".  c #0A0101",
"X  c #010900",
"o  c #060409",
"O  c #130000",
"+  c #021207",
"@  c #000A10",
"#  c #040612",
"$  c #0C1911",
"%  c #0D1718",
"&  c #0B1C1F",
"*  c #111216",
"=  c #331F1E",
"-  c #1A251F",
";  c #2A281D",
":  c #36251B",
">  c #0E1E22",
",  c #111E23",
"<  c #1E1F23",
"1  c #0E2221",
"2  c #0E2827",
"3  c #132426",
"4  c #192527",
"5  c #1A2926",
"6  c #14252A",
"7  c #18272B",
"8  c #15292C",
"9  c #1A2B2D",
"0  c #132926",
"q  c #17302D",
"w  c #1D312B",
"e  c #1B2E32",
"r  c #1A2632",
"t  c #0B3533",
"y  c #153132",
"u  c #1D3234",
"i  c #1F3E34",
"p  c #1D3539",
"a  c #1E3A3E",
"s  c #153C3B",
"d  c #2F2621",
"f  c #282924",
"g  c #222C24",
"h  c #362C23",
"j  c #3D2A24",
"k  c #2F3022",
"l  c #22302C",
"z  c #263A2E",
"x  c #373621",
"c  c #333824",
"v  c #33322B",
"b  c #3D362C",
"n  c #232D32",
"m  c #2C2A38",
"M  c #233535",
"N  c #293533",
"B  c #233936",
"V  c #23363B",
"C  c #28373C",
"Z  c #253A3D",
"A  c #2A3B3D",
"S  c #363030",
"D  c #33363B",
"F  c #303B3D",
"G  c #3B3738",
"H  c #4E2919",
"J  c #5E2A1C",
"K  c #42311F",
"L  c #7A2810",
"P  c #752B1E",
"I  c #77301C",
"U  c #432D25",
"Y  c #4E2B29",
"T  c #562721",
"R  c #542F27",
"E  c #512E28",
"W  c #5C2B24",
"Q  c #4D3D2F",
"!  c #47352A",
"~  c #51362E",
"^  c #573D2E",
"/  c #5C3D29",
"(  c #593E24",
")  c #433436",
"_  c #483730",
"`  c #473833",
"'  c #4B3C31",
"]  c #473438",
"[  c #49343B",
"{  c #65302A",
"}  c #613A29",
"|  c #623C27",
" . c #7A3727",
".. c #194234",
"X. c #27403D",
"o. c #2D423D",
"O. c #30403F",
"+. c #3D4438",
"@. c #484325",
"#. c #57422F",
"$. c #53482C",
"%. c #43453C",
"&. c #4C4437",
"*. c #524433",
"=. c #584235",
"-. c #52453B",
";. c #5E4038",
":. c #534F32",
">. c #5E563C",
",. c #585B3A",
"<. c #605736",
"1. c #6B5837",
"2. c #635B3C",
"3. c #6B5938",
"4. c #636234",
"5. c #1C3E40",
"6. c #233740",
"7. c #2D3741",
"8. c #253C42",
"9. c #2A3D42",
"0. c #2C3F49",
"q. c #36374B",
"w. c #4D3942",
"e. c #274141",
"r. c #2B4144",
"t. c #254844",
"y. c #314142",
"u. c #304149",
"i. c #444645",
"p. c #555742",
"a. c #5D5548",
"s. c #5F5D48",
"d. c #675646",
"f. c #645E42",
"g. c #705B4A",
"h. c #6F5850",
"j. c #6A5B5E",
"k. c #5B6C44",
"l. c #5B694F",
"z. c #587547",
"x. c #567549",
"c. c #5D724C",
"v. c #5B6E5A",
"b. c #5D7659",
"n. c #696345",
"m. c #6A6C47",
"M. c #616449",
"N. c #656944",
"B. c #77624D",
"V. c #796449",
"C. c #65724F",
"Z. c #616F56",
"A. c #6E6B53",
"S. c #696455",
"D. c #796952",
"F. c #716C59",
"G. c #667452",
"H. c #697753",
"J. c #617953",
"K. c #6D775F",
"L. c #6E7B5C",
"P. c #6C7A56",
"I. c #727E56",
"U. c #787758",
"Y. c #727E5A",
"T. c #75785B",
"R. c #777956",
"E. c #695E62",
"W. c #6D7F6F",
"Q. c #6A7E62",
"!. c #737264",
"~. c #727A63",
"^. c #7A7863",
"/. c #757668",
"(. c #7C796B",
"). c #737C69",
"_. c #867D6E",
"`. c #867E71",
"'. c #6F845D",
"]. c #6D8456",
"[. c #72845C",
"{. c #678166",
"}. c #6F856E",
"|. c #6D8064",
" X c #728462",
".X c #788460",
"XX c #738168",
"oX c #7B876F",
"OX c #788279",
"+X c #B19B72",
"@X c #A3AA77",
"#X c #96A582",
"$X c #9CA989",
"%X c #A2AC89",
"&X c #BECEAE",
/* pixels */
", 9 6 6 8 6 6 6 6 7 6 7 7 , 9 3 4 6 r 6 3 3 8 6 6 8 6 3 6 6 > & ",
"9 C V V Z V Z Z 8 9 9 9 M u 6 u 3 Z C 0.M o.B V u V Z V Z Z V V ",
"6 V Z Z A V Z 9.3 A A u p A V Z 8 Z Z p Z B A Z e Z 9.Z Z Z Z Z ",
"6 V Z Z Z p V Z w M V r.a 8.Z Z u A Z e.e.y V Z e Z A Z Z V V Z ",
"8 Z A Z A Z Z Z 9 Z 9.V 8.V 9.A 4 y.A V 8.9.6.Z y Z A Z A A Z A ",
"6 V V V Z Z Z Z u V 9.6.C F     . .   M V 0.p 6.e V Z V Z A Z Z ",
"6 Z Z V Z Z Z Z e 9.Z V F   -.U Y ~ !   A V Z 8.u Z A Z A Z Z Z ",
"6 A 9.Z Z Z Z Z e V Z A   &.B.( W H #.S.X A V B e V Z Z Z Z Z Z ",
"3 u e 9 e e e e y 7 M . T $.k.} J Q z.x.m.  q e 8 u e e e e e e ",
"9 A Z V Z Z Z Z y 7.u . R @.G./ / b.m.C.z.. A Z u A Z Z Z Z Z Z ",
"6 V Z V Z Z Z V 9 V A X =.M.G.^ '.~.U.c.k.  V 8.e Z V Z Z Z Z V ",
"6 Z Z Z A Z Z Z u A V X S.L. X*.'.(.Y.J.C.  M 6.e Z Z Z Z Z Z Z ",
"6 Z A Z A Z A Z 9 7.A X ~.X X ^./ {.X X J.o V 0.e Z Z Z A Z A A ",
"6 Z Z V Z V Z Z u V C X Z.&X#X~.| K.#X&XC.  Z M e Z V V V V Z Z ",
"6 Z A Z A Z Z Z e A A X XXP.H. XR.*.Y.L.R.X B 9.e Z Z Z Z V A A ",
"6 Z A Z A Z Z Z 9 Z A X l..XI. X].Q.( T.J.  C V e Z Z Z Z V A Z ",
"6 6 e e e e 9 e y g . E _ v.$XI.%X[.$X;.X n m t 9 n 9 e u e e 6 ",
"8 Z Z V 9.M 9.9.V   U U ' x c.@XL +XP U   D A i u A Z Z A Z Z V ",
"8 V A V Z V r.p   (.~ ' b h c A.I  .K . @ p m A e Z Z Z Z V Z Z ",
"6 V 9.8.Z 8.Z 9.X Q _.. G S ) v |.: +.] G # a 5.e Z Z Z Z V Z Z ",
"3 9.Z a r.p V A   [   X f v : ~.!.%.' }.`.  ..A u A Z Z A Z A Z ",
"3 A Z p 8.V y.  ) i.  X G = ; /.l .     . z Z a e Z V V Z Z A V ",
"7 A A 8.Z A N   _ +.X   d j k h ; . e.9.s V 8.q.e Z Z Z A Z A Z ",
"3 9.p 8.Z M   %.w.  B . h.f.2.,.3.s.  Z u.p X.B e Z Z Z Z V Z Z ",
"3 u e u 9 l X OXoXX n   a.2.n.:.1.2.M.X 9 M 5 w 8 u e e e e e e ",
"9 Z V r.M A N X X M 9.A X 2.<.n.p.>.1.g.. 7.r.i u 9.Z Z Z Z Z Z ",
"3 9.V u 9.M y.M n C 8.M X 2.f.>.X ,.4.N.+ 9.V D e Z V Z Z Z Z V ",
"3 V r.8.8.8.e r.e 0.Z X !.A.F.. . d.V.D.  V 8.8.e Z Z Z A Z Z Z ",
"6 V u Z p 8.8.Z y V F . ` -.  N . ).W.X M A 9.8.e Z Z Z A Z A Z ",
"3 r.A 9.r.p p Z u B n . j.E.  8.{ O   p A O.M p e C V V V V Z Z ",
"3 u 9.u u 9.r.V & 8 9 % < * > 8 $ $ 1 & e 6 y t.e Z Z Z Z V A A ",
"8 A V A A C V Z n 7 8 2 3 5 5 0 6 5 - 5 6 8.9.M e Z Z Z Z V A Z "
};
