/* XPM */
static char *_c681137948e48c7e14733475170a514WsA06z4JqB7a5KQJ[] = {
/* columns rows colors chars-per-pixel */
"32 32 189 2 ",
"   c #020201",
".  c #0A0101",
"X  c #000901",
"o  c #080A07",
"O  c #000109",
"+  c #150002",
"@  c #000A10",
"#  c #0C1A1C",
"$  c #041414",
"%  c #111419",
"&  c #372D1B",
"*  c #38291D",
"=  c #0E1D22",
"-  c #181621",
";  c #111D23",
":  c #072928",
">  c #0E2E2B",
",  c #0E2422",
"<  c #122426",
"1  c #1B2426",
"2  c #14252A",
"3  c #1B262B",
"4  c #152A2B",
"5  c #1B2B2D",
"6  c #192C25",
"7  c #1D322C",
"8  c #15382D",
"9  c #122E31",
"0  c #1B2E32",
"q  c #1D3234",
"w  c #173B37",
"e  c #1B3B37",
"r  c #1D353A",
"t  c #1E3C3A",
"y  c #123632",
"u  c #2C2B25",
"i  c #252A2D",
"p  c #2D2D2C",
"a  c #22252A",
"s  c #392B24",
"d  c #322F28",
"f  c #382726",
"g  c #313127",
"h  c #343128",
"j  c #3A3323",
"k  c #232432",
"l  c #212E32",
"z  c #252638",
"x  c #222F38",
"c  c #292F3B",
"v  c #372C32",
"b  c #223435",
"n  c #2B3734",
"m  c #253836",
"M  c #293936",
"N  c #23363A",
"B  c #2B353B",
"V  c #253A3D",
"C  c #2A3B3D",
"Z  c #323033",
"A  c #3A3D31",
"S  c #323E3D",
"D  c #373138",
"F  c #412E1F",
"G  c #49241C",
"H  c #522B1F",
"J  c #5F3A1F",
"K  c #783115",
"L  c #402D29",
"P  c #49292A",
"I  c #572420",
"U  c #582C24",
"Y  c #413121",
"T  c #4F322B",
"R  c #4B3B2B",
"E  c #483726",
"W  c #5C3D28",
"Q  c #52382B",
"!  c #433434",
"~  c #433C35",
"^  c #47373A",
"/  c #423F3A",
"(  c #4B3A3B",
")  c #4D3C35",
"_  c #533F3A",
"`  c #583833",
"'  c #612C24",
"]  c #61302B",
"[  c #603D2A",
"{  c #7E3526",
"}  c #663B33",
"|  c #1C4036",
" . c #1E423B",
".. c #23413F",
"X. c #29413E",
"o. c #2B4336",
"O. c #3C4238",
"+. c #43412A",
"@. c #54432D",
"#. c #5D402C",
"$. c #4C413F",
"%. c #4D4532",
"&. c #5A473C",
"*. c #5E5238",
"=. c #5F5D3C",
"-. c #614432",
";. c #605834",
":. c #655B3E",
">. c #695C39",
",. c #5B6A3F",
"<. c #63613B",
"1. c #70603C",
"2. c #1C3B40",
"3. c #253C41",
"4. c #2A3D42",
"5. c #2E3442",
"6. c #333E49",
"7. c #254142",
"8. c #2A4145",
"9. c #2B4243",
"0. c #214948",
"q. c #314143",
"w. c #47484D",
"e. c #5D5C48",
"r. c #5D5D45",
"t. c #665F43",
"y. c #625C4C",
"u. c #665E53",
"i. c #715D54",
"p. c #536F46",
"a. c #5C6C47",
"s. c #577248",
"d. c #566D51",
"f. c #5F7954",
"g. c #5D7555",
"h. c #6F6743",
"j. c #626D4F",
"k. c #69684A",
"l. c #706B4F",
"z. c #62704F",
"x. c #6A754E",
"c. c #6F6657",
"v. c #606D53",
"b. c #6A6F5B",
"n. c #776757",
"m. c #726D57",
"M. c #627253",
"N. c #657354",
"B. c #6A7455",
"V. c #687F55",
"C. c #647058",
"Z. c #6C7E5E",
"A. c #657E56",
"S. c #727759",
"D. c #78735F",
"F. c #757B5B",
"G. c #7A7A5A",
"H. c #727351",
"J. c #5E7360",
"K. c #6E7762",
"L. c #667D68",
"P. c #727761",
"I. c #747964",
"U. c #7A7E62",
"Y. c #747D6A",
"T. c #687C70",
"R. c #822C11",
"E. c #852C2E",
"W. c #827970",
"Q. c #678152",
"!. c #65825A",
"~. c #6E8358",
"^. c #6D8053",
"/. c #718055",
"(. c #71835D",
"). c #708962",
"_. c #79876D",
"`. c #788369",
"'. c #758479",
"]. c #678466",
"[. c #81846F",
"{. c #99A371",
"}. c #92A780",
"|. c #96AA87",
" X c #99AB81",
".X c #9AB184",
"XX c #94B088",
"oX c #BFC2A3",
"OX c #C1C7A1",
/* pixels */
"; 5 2 2 4 2 2 2 3 3 < 4 2 2 < 4 3 3 3 3 1 3 3 1 2 4 2 < 2 2 = # ",
"5 B N N V N V V 3 5 q 2 5 q 5 5 < C N V 9.C 2 7.q N V N V V N N ",
"2 N V V C N V 4., C C q.N B C B < V X.q N V V 7.0 V 4.V V V V V ",
"2 N V V V r N V q q N N N 4.N 3.0 b N 9.N C N C 0 V C V V N N V ",
"4 V C V C V V V q C 4.3.8.r 3.t 0 4.4.N 3.4.C B q V C V C C V C ",
"2 N N N V V V V 5 3.r 3.r 4.B B 0 N 3.3.t V V e 0 N V N V C V V ",
"2 V V N V V V V b q 9.7.b n   . .     B N 7.e 8.q V C V C V V V ",
"2 C 4.V V V V V 4 9.e q S   _ T H T L . S N 4.r 0 N V V V V V V ",
"< q 0 5 0 0 0 0 > c z >   } a.#.H H @.a.X 5 N 0 4 q 0 0 0 0 0 0 ",
"5 C V N V V V V q N N   ` ' A.E U +.N.x.M.  N N q C V V V V V V ",
"2 N V N V V V N i t t . G [ p.-.@.g.s.,.z.  S X.0 V N V V V V N ",
"2 V V V C V V V a e X.. %.l.f.] ).U.B.p.M.  C b 0 V V V V V V V ",
"2 V C V C V C V 0 8.b   C.S.Z.` Z.D.`.V.v.  V 4.0 V V V C V C V ",
"2 V V N V N V V 9 V V   b.. X K.Q _.X   P.  4.e 0 V N N N N V V ",
"2 V C V C V V V 4 V C   K.oX}.!.#.C.|.OXB.  N ..0 V V V V N C C ",
"2 V C V C V V V 7 B C   ].!.~.G.F.@.G.Q.Z.X N B 0 V V V V N C V ",
"2 2 0 0 5 q q 0 l 0 5 X d.!.(.G.I.U.J ^.g.  5 x 5 l 5 0 q 0 0 2 ",
"4 N 4.C N V V N l b o P T N.XXF..X/..X}   t 7.w q C V V C V V N ",
"2 N 4.N N V V C 6 X E U ` * j. XR.{.E.! O 5.V B 0 V V V V N V V ",
"2 V N N C C V V   W.F R s ( j x.K { * + 0.r B m 0 V V V V N V V ",
"2 V V C 9.V N N . A [.. v Z g & F.Y A   . e C C q C V V C V C V ",
"2 V N V V N V V   / ~   p v d Y.T.! $.O._ . N N 0 V N N V V C N ",
"2 4.V V V V 4.l   ( ^   u f s J.p . . T.'.   .2.0 V V V C V C V ",
"2 V V V C C b @ ) ! .   u s * h u . | . . 8 B 4.0 V V V V N V V ",
"< q 4 0 5 0 l   R ~ . . e.=.<.=.<.r.. 4 y 3 q 0 4 q 0 0 0 0 0 0 ",
"< V V 9.4.N l   _.'.O   t.>.:.&.;.k.y.  B B t C q C V V V V V V ",
"< C N N V V q.b     M M   y.:.1.*.:.=.i.. q 9.b 0 V N V V V V N ",
"< C N N V N C V 7 N 6.  l.h.m.  . @.H.n.. 7.N V 0 V V V C V V V ",
"< C C C 9.N t N 4 V 8   w.( + W . &.P.  C 3.B t 0 V V V C V C V ",
"2 N N N 3.V C 9.e N 6.  u.c.. D a .   o.e r 6.3.0 V N N N N V V ",
"< N C V 4.V N N - i 3 $ = ; # 6 # # % = 2 5 N 4.0 V V V V N C C ",
"4 N V V V V 3.V q 2 4 5 1 1 5 2 < : k k 1 n  .N 0 V V V V N C V "
};
