/* XPM */
static char *c6006745fa64463bc156de4ec85305224zqcKXFsab1OwmeM[] = {
/* columns rows colors chars-per-pixel */
"32 32 186 2 ",
"   c #020201",
".  c #0A0102",
"X  c #000901",
"o  c #080A07",
"O  c #000009",
"+  c #140003",
"@  c #000A10",
"#  c #011714",
"$  c #0C1719",
"%  c #0B1C1F",
"&  c #15191D",
"*  c #372D1B",
"=  c #38291D",
"-  c #0D1F23",
";  c #101D23",
":  c #0E2E2B",
">  c #0E2422",
",  c #132426",
"<  c #192225",
"1  c #14252A",
"2  c #1A262B",
"3  c #152A2B",
"4  c #1B2B2E",
"5  c #152A25",
"6  c #1D302C",
"7  c #123E2D",
"8  c #122E31",
"9  c #1B2E32",
"0  c #173033",
"q  c #1D3234",
"w  c #173B37",
"e  c #1B3E37",
"r  c #1D353A",
"t  c #1E3C3B",
"y  c #2C2B25",
"u  c #22272D",
"i  c #232B2E",
"p  c #2D2D2C",
"a  c #392B24",
"s  c #322F28",
"d  c #382726",
"f  c #29392F",
"g  c #313127",
"h  c #343128",
"j  c #3A3323",
"k  c #222E32",
"l  c #252638",
"z  c #222F38",
"x  c #292F3B",
"c  c #372C32",
"v  c #223435",
"b  c #2D3736",
"n  c #243B35",
"m  c #23363A",
"M  c #2B363B",
"N  c #253A3D",
"B  c #2A3B3D",
"V  c #323033",
"C  c #3A3D31",
"Z  c #323E3D",
"A  c #3B3132",
"S  c #412E1F",
"D  c #49241C",
"F  c #522B1F",
"G  c #5F3A1F",
"H  c #59351B",
"J  c #783115",
"K  c #402D29",
"L  c #49292A",
"P  c #572420",
"I  c #582C24",
"U  c #413121",
"Y  c #4F322B",
"T  c #493828",
"R  c #52382B",
"E  c #433434",
"W  c #4A3530",
"Q  c #413E35",
"!  c #47373A",
"~  c #423F3A",
"^  c #4C3A3B",
"/  c #4D3C35",
"(  c #533F3A",
")  c #583833",
"_  c #612C24",
"`  c #61302B",
"'  c #603D2A",
"]  c #7E3526",
"[  c #663B33",
"{  c #1C4036",
"}  c #1F423C",
"|  c #3F4529",
" . c #24413D",
".. c #29413E",
"X. c #304139",
"o. c #3C4238",
"O. c #43412A",
"+. c #54422C",
"@. c #5D402C",
"#. c #4C413F",
"$. c #4D4532",
"%. c #55423E",
"&. c #5F5B38",
"*. c #5E533D",
"=. c #614432",
"-. c #64543B",
";. c #655D3D",
":. c #705A35",
">. c #5B6A3F",
",. c #1C3B40",
"<. c #2E3541",
"1. c #263B41",
"2. c #2A3D42",
"3. c #254142",
"4. c #2A4145",
"5. c #2A4143",
"6. c #214948",
"7. c #314143",
"8. c #5D5747",
"9. c #685743",
"0. c #625B44",
"q. c #745E47",
"w. c #625F50",
"e. c #6B5B5E",
"r. c #536F46",
"t. c #5C6C47",
"y. c #577248",
"u. c #566D51",
"i. c #5F7954",
"p. c #5D7555",
"a. c #626047",
"s. c #6A6547",
"d. c #61604C",
"f. c #626D4F",
"g. c #706C4F",
"h. c #62704F",
"j. c #6A754E",
"k. c #606D53",
"l. c #676857",
"z. c #716A5B",
"x. c #746353",
"c. c #627253",
"v. c #657354",
"b. c #6A7455",
"n. c #687F55",
"m. c #647058",
"M. c #6C7E5E",
"N. c #657E56",
"B. c #727759",
"V. c #78735F",
"C. c #757B5B",
"Z. c #7A7A5A",
"A. c #5E7360",
"S. c #716363",
"D. c #6E7762",
"F. c #667D68",
"G. c #727761",
"H. c #727B64",
"J. c #7A7E62",
"K. c #757668",
"L. c #797E6B",
"P. c #687C70",
"I. c #822C11",
"U. c #852C2E",
"Y. c #827970",
"T. c #678152",
"R. c #65825A",
"E. c #6E8358",
"W. c #6D8053",
"Q. c #718055",
"!. c #71835D",
"~. c #678466",
"^. c #708962",
"/. c #79876D",
"(. c #7C8163",
"). c #738474",
"_. c #81846F",
"`. c #80837C",
"'. c #99A371",
"]. c #92A780",
"[. c #96AA87",
"{. c #99AB81",
"}. c #9AB184",
"|. c #94B088",
" X c #BFC2A3",
".X c #C1C7A1",
/* pixels */
"; 4 1 1 3 1 1 1 2 2 , 3 1 1 , 3 2 2 2 2 < 2 2 < 1 3 1 , 1 1 - % ",
"4 M m m N m N N 2 4 q 1 4 q 4 4 , B m N 5.B 1 3.q m N m N N m m ",
"1 m N N B m N 2.> B B 7.m M B M , N ..q m N N 3.9 N 2.N N N N N ",
"1 m N N N r m N q q m m m 2.m 2.9 v m 4.m B m B 9 N B N N m m N ",
"3 N B N B N N N q B 1.1.4.r 1.t 9 1.2.m 1.2.B M q N B N B B N B ",
"1 m m m N N N N 4 1.r 1.r 2.M M 9 m 2.2.t N N q 9 m N m N B N N ",
"1 N N m N N N N v q 5.3.v b   . .     M m 3.w 4.q N B N B N N N ",
"1 B 2.N N N N N 3 5.q q Z   ( Y F Y K . Z m 2.r 9 m N N N N N N ",
", q 9 4 9 9 9 9 : x l :   [ t.@.F P +.t.X 4 m 9 3 q 9 9 9 9 9 9 ",
"4 B N m N N N N q m m   ) _ N.T I O.v.j.c.  m m q B N N N N N N ",
"1 m N m N N N m i t t . D ' r.=.+.p.y.>.h.  B ..9 N m N N N N m ",
"1 N N N B N N N u q ... $.g.i.` ^.J.b.r.c.  B v 9 N N N N N N N ",
"1 N B N B N B N 9 4.v   m.B.M.) M.V.(.n.k.  N 2.9 N N N B N B N ",
"1 N N m N m N N 8 N N   m.. X D.R /.X   G.  2.r 9 N m m m m N N ",
"1 N B N B N N N 3 N B   D. X].R.@.m.[..Xb.  m  .9 N N N N m B B ",
"1 N B N B N N N 6 M B   ~.R.E.Z.C.+.Z.T.M.X m M 9 N N N N m B N ",
"1 1 9 9 4 q q 9 k 9 4 X u.R.!.Z.H.J.G W.p.  4 z 4 k 4 9 q 9 9 1 ",
"3 m 2.B m N N m k v o L Y v.|.C.}.Q.}.[   t 3.w q B N N B N N m ",
"1 m 2.m m N N B 5 X T I ) = f.{.I.'.U.E O <.N b 9 N N N N m N N ",
"1 N m m B B N N   Y.S T a ^ j j.J ] = + 6.r M n 9 N N N N m N N ",
"1 N N B 5.N m m . C _.. A V g * C.U C   . e B B q B N N B N B N ",
"1 N m N N m N N   ~ Q   p c s L.P.E #.o.( . m m 9 N m m N N B m ",
"1 2.N N N N 2.k   ^ !   y d a A.p . . P.).  } ,.9 N N N B N B N ",
"1 N N N B B v @ / E .   y a = h y . { . . 7 M 2.9 N N N N m N N ",
", q 3 9 4 q k   | Q . . 0.&.;.;.:.9.. k v 3 0 0 3 q 9 9 9 9 9 9 ",
", N N 5.2.m v X L.`.    d.;.;.*.H q.w.  n m B B q B N N N N N N ",
", B m m N N 7.v     B X.  0.0.8.-.-.0.d.  M m n 9 N m N N N N m ",
", B m m N m B N i m  .  z.x.z.    a.s.z.  <.2. .9 N N N B N N N ",
", B B B 5.m r m 9 N v o %.W   n . K.H.X m 1.N v 9 N N N B N B N ",
"1 m m m 2.N B 5.q N B   e.S.   .u     f m 2.r 5.9 N m m m m N N ",
", m B N 1.N m m % 3 4 $ & & $ , # , < & < 2 N t 9 N N N N m B B ",
"3 m N N N N 1.N i 2 , 4 1 1 4 2 < < 1 q 1 n M M 9 N N N N m B N "
};
