/* XPM */
static char *_2287f6106cd4f0da75c6b2aca257a56Et9iPhc3SjOg7SRf[] = {
/* columns rows colors chars-per-pixel */
"32 32 178 2 ",
"   c #020301",
".  c #0A0102",
"X  c #010A02",
"o  c #000709",
"O  c #00090E",
"+  c #0E1817",
"@  c #0C1719",
"#  c #0B1D1F",
"$  c #031312",
"%  c #121C1E",
"&  c #282C1B",
"*  c #302B15",
"=  c #392D1D",
"-  c #0D1F23",
";  c #111E23",
":  c #132325",
">  c #102926",
",  c #142529",
"<  c #19262B",
"1  c #162A2C",
"2  c #1A2B2D",
"3  c #1B322B",
"4  c #14312C",
"5  c #1D2631",
"6  c #172E32",
"7  c #1B2E32",
"8  c #162E3A",
"9  c #1D3234",
"0  c #193E37",
"q  c #1D353A",
"w  c #1E3A3D",
"e  c #143C31",
"r  c #222E2E",
"t  c #2D282C",
"y  c #2B2724",
"u  c #322626",
"i  c #362A23",
"p  c #382B25",
"a  c #352A28",
"s  c #382D29",
"d  c #2D332B",
"f  c #3E3A2D",
"g  c #383522",
"h  c #212E33",
"j  c #2B2F32",
"k  c #212838",
"l  c #233435",
"z  c #2E3835",
"x  c #23373A",
"c  c #2B353A",
"v  c #253A3D",
"b  c #293B3D",
"n  c #373632",
"m  c #3B3234",
"M  c #323B3D",
"N  c #782D16",
"B  c #4F2920",
"V  c #472C28",
"C  c #552727",
"Z  c #582722",
"A  c #552B21",
"S  c #5A2827",
"D  c #433823",
"F  c #4A312D",
"G  c #413B2F",
"H  c #493D2D",
"J  c #5E3A26",
"K  c #51322D",
"L  c #533C2B",
"P  c #563229",
"I  c #422F35",
"U  c #433C35",
"Y  c #4C3C34",
"T  c #463B3F",
"R  c #4E3E3A",
"E  c #443633",
"W  c #523E37",
"Q  c #5C3A30",
"!  c #55353A",
"~  c #702E22",
"^  c #7E2D2C",
"/  c #613C2A",
"(  c #70312A",
")  c #6D3B30",
"_  c #1E403F",
"`  c #1E483C",
"'  c #2B413F",
"]  c #57412C",
"[  c #534434",
"{  c #564639",
"}  c #574F38",
"|  c #5B423B",
" . c #5D563C",
".. c #5E5D3F",
"X. c #5C5133",
"o. c #60402B",
"O. c #6C5837",
"+. c #645F3F",
"@. c #695F3C",
"#. c #606139",
"$. c #1B3742",
"%. c #183E41",
"&. c #2C3742",
"*. c #253C41",
"=. c #2A3D41",
"-. c #293D48",
";. c #3E3641",
":. c #313D43",
">. c #483F42",
",. c #423D44",
"<. c #1B4A44",
"1. c #224547",
"2. c #2D4244",
"3. c #314141",
"4. c #5B5644",
"5. c #5E5C43",
"6. c #5D5E49",
"7. c #645D40",
"8. c #685D49",
"9. c #615D5A",
"0. c #5B6D4A",
"q. c #5C7845",
"w. c #57734A",
"e. c #5D7448",
"r. c #5E7848",
"t. c #5D6A50",
"y. c #5F7159",
"u. c #676044",
"i. c #686347",
"p. c #686A43",
"a. c #63684A",
"s. c #6A6D4E",
"d. c #67724A",
"f. c #646D53",
"g. c #6D6C56",
"h. c #6B6859",
"j. c #766A5E",
"k. c #726253",
"l. c #6B7052",
"z. c #6A7B55",
"x. c #63755B",
"c. c #6B755C",
"v. c #677A5C",
"b. c #697E5C",
"n. c #647551",
"m. c #76765A",
"M. c #747B5B",
"N. c #7B7A5E",
"B. c #6B6663",
"V. c #6F7163",
"C. c #657163",
"Z. c #777566",
"A. c #707F60",
"S. c #7B7B63",
"D. c #7B7D68",
"F. c #787D79",
"G. c #843123",
"H. c #887B6A",
"J. c #827C70",
"K. c #6B8454",
"L. c #718457",
"P. c #73825C",
"I. c #71895C",
"U. c #6B8061",
"Y. c #748263",
"T. c #778864",
"R. c #738668",
"E. c #7F8E6D",
"W. c #7C8664",
"Q. c #81827D",
"!. c #8AA173",
"~. c #92A377",
"^. c #97A87B",
"/. c #A4A87C",
"(. c #9AAF86",
"). c #A0A785",
"_. c #B5C49B",
"`. c #C5C0A0",
/* pixels */
"; 2 , , 1 , , , , 2 , < : < : : < : : , , : < : , 1 , : , , - # ",
"2 b x x b x b b ; 7 7 l 2 9 7 7 , x b b v x b l 9 x b x b b x x ",
", x b b b x b =.2 b x =.x x b x : b b b b b b b 7 b =.b b b b b ",
", x b b v q x b 2 b q b *.*.*.*.9 =.x v v v x *.7 b b v v x x b ",
"1 b b v b v b b 2 b x b *.v q x 1 =.x b b 2.v *.9 b b v v b b b ",
", x x x v v b v 7 =.=.b v =.x 2.< :.v b q *.*.v 7 x v x v v v b ",
", b b x b b b b 2 x v x b 2.7 b h c l =.x b x v 9 b b v v b b b ",
", b =.b b v b b l x b x v l o o     o l b b q *.7 x b v b b b b ",
": 9 7 1 7 7 7 7 3 1 k q 4   [ A A A C   q h q 1 1 9 7 7 7 7 7 7 ",
"2 b b x b b b b 9 b &.b . [ a.J B L ] t.X j *.*.9 b b b b b b b ",
", x b x b b b x > &.2.  S ] e.J K D p.r.0.  2.$.7 x x b b b b x ",
", b b v b b b b 9 &.l X Z ] w./ { f.d.q.n.  l -.7 b b b b v b v ",
", b b b b b b b h w b   H l.v.P N.T.d.0.y.  ' l 7 b b b b b b b ",
", b b w v x v v h _ c   x.b.c.| N.z.W.f.C.  9 M 7 b x x x x v v ",
", b b v b v b b 2 w c   x.  X M.L Y.X X f.  w b 7 b b b b x v v ",
", b b v b v b b h w :.  c.`.~.K.Q P.!._.S.  v w 7 b b b b x v v ",
"; 7 1 1 9 7 7 7 2 6 7   Y.K.b.D.Y.W U.K.m.O 8 t 2 7 2 7 9 7 7 , ",
"2 b b b *.b b b 9 x M   g.P.I.z.z.A.) P.x.  %.l 9 b b b b b b x ",
"1 b b v b x v b 6 3.  F Y 5.(.I./.L.).P   ,.c ` 7 b b b b x b b ",
", x b v b q v b 7   H V Y G f.^.N /.^ V   l 0 l 7 b b b b w v v ",
", b *.v b v v b o J.D H a m f s.G.~ g   <.x b *.9 b b b b v v v ",
", x b v v x v v   Y H.  n m s g M.= R X . b =.w 7 v x x b v v x ",
", b b v b b b b   E R   d u p Z.( ! >.f U . q ;.7 b b b b b b b ",
", b b x b v b b   T I . y i i & * o . R.E.  1.e 7 b b b b x b v ",
": 9 7 1 7 7 7 7   U U   6...@.O.#. ..     2 9 8 1 9 7 7 7 7 7 7 ",
"2 b b x b b b b   F.Q.X 4.5.7.X.+.i.4.  z b b b 9 b b b b b b b ",
", x b x b b b x r o X d   8.5.6.}  .u.g.  l b b 7 b x b b b b x ",
", b b v b b b b l b 2   j.k.h.    5.i.g.  &.x l 7 b b b b v b v ",
", b b b b b b b 7 x 2.  U R   z   V.S.X l x *.2.7 b b b b b b b ",
", b b w v w v v l =.x   9.B.  c 2 X   d l *.v q 7 b x x x x v v ",
", b b v v v b b # , < % % + @ 2 $ : @ ; 2 1 =.*.7 b b b b x v v ",
", b b v b v b b 3 2 ; 2 1 > 2 < : : 5 5 : b 9 =.7 b b b b x v v "
};
